<svg width="573" height="336" xmlns="http://www.w3.org/2000/svg" xmlns:xlink="http://www.w3.org/1999/xlink" xml:space="preserve" overflow="hidden"><defs><clipPath id="clip0"><rect x="35" y="2699" width="573" height="336"/></clipPath><clipPath id="clip1"><rect x="104" y="2706" width="497" height="288"/></clipPath></defs><g clip-path="url(#clip0)" transform="translate(-35 -2699)"><path d="M35 2699.1 608 2699.1 608 3034.9 35 3034.9Z" fill="#FFFFFF"/><path d="M35 2699.1 608 2699.1 608 3034.9 35 3034.9Z" fill="#FFFFFF"/><path d="M35 3034.9 608 3034.9 608 2699.1 35 2699.1Z" stroke="#FFFFFF" stroke-width="1.42181" stroke-linecap="round" stroke-linejoin="round" stroke-miterlimit="10" fill="none"/><g clip-path="url(#clip1)"><path d="M104.814 2993.16 600.702 2993.16 600.702 2706.4 104.814 2706.4Z" fill="#FFFFFF"/></g><path d="M137.539 2980.13 147.726 2980.13 147.726 2845.71 137.539 2845.71Z" fill="#7EC0EE"/><path d="M175.746 2980.13 185.934 2980.13 185.934 2844.88 175.746 2844.88Z" fill="#7EC0EE"/><path d="M213.948 2980.13 224.135 2980.13 224.135 2840.29 213.948 2840.29Z" fill="#7EC0EE"/><path d="M252.15 2980.13 262.337 2980.13 262.337 2825 252.15 2825Z" fill="#7EC0EE"/><path d="M290.357 2980.13 300.543 2980.13 300.543 2818.2 290.357 2818.2Z" fill="#7EC0EE"/><path d="M328.559 2980.13 338.745 2980.13 338.745 2815.74 328.559 2815.74Z" fill="#7EC0EE"/><path d="M366.766 2980.13 376.952 2980.13 376.952 2811.78 366.766 2811.78Z" fill="#7EC0EE"/><path d="M404.967 2980.13 415.154 2980.13 415.154 2791.99 404.967 2791.99Z" fill="#7EC0EE"/><path d="M443.169 2980.13 453.355 2980.13 453.355 2778.47 443.169 2778.47Z" fill="#7EC0EE"/><path d="M481.376 2980.13 491.562 2980.13 491.562 2758.28 481.376 2758.28Z" fill="#7EC0EE"/><path d="M519.578 2980.13 529.764 2980.13 529.764 2757.16 519.578 2757.16Z" fill="#7EC0EE"/><path d="M557.784 2980.13 567.971 2980.13 567.971 2739.96 557.784 2739.96Z" fill="#7EC0EE"/><path d="M127.353 2980.13 137.539 2980.13 137.539 2952.44 127.353 2952.44Z" fill="#436EEE"/><path d="M165.554 2980.13 175.741 2980.13 175.741 2952.81 165.554 2952.81Z" fill="#436EEE"/><path d="M203.762 2980.13 213.948 2980.13 213.948 2952.35 203.762 2952.35Z" fill="#436EEE"/><path d="M241.962 2980.13 252.15 2980.13 252.15 2949.08 241.962 2949.08Z" fill="#436EEE"/><path d="M280.169 2980.13 290.357 2980.13 290.357 2948.49 280.169 2948.49Z" fill="#436EEE"/><path d="M318.371 2980.13 328.559 2980.13 328.559 2950.19 318.371 2950.19Z" fill="#436EEE"/><path d="M356.573 2980.13 366.76 2980.13 366.76 2948.48 356.573 2948.48Z" fill="#436EEE"/><path d="M394.78 2980.13 404.967 2980.13 404.967 2943.2 394.78 2943.2Z" fill="#436EEE"/><path d="M432.982 2980.13 443.169 2980.13 443.169 2939.19 432.982 2939.19Z" fill="#436EEE"/><path d="M471.189 2980.13 481.376 2980.13 481.376 2930.64 471.189 2930.64Z" fill="#436EEE"/><path d="M509.391 2980.13 519.578 2980.13 519.578 2925.91 509.391 2925.91Z" fill="#436EEE"/><path d="M547.592 2980.13 557.779 2980.13 557.779 2912.22 547.592 2912.22Z" fill="#436EEE"/><path d="M147.726 2980.13 157.913 2980.13 157.913 2826.4 147.726 2826.4Z" fill="#00688B"/><path d="M185.934 2980.13 196.12 2980.13 196.12 2823.97 185.934 2823.97Z" fill="#00688B"/><path d="M224.135 2980.13 234.321 2980.13 234.321 2816.81 224.135 2816.81Z" fill="#00688B"/><path d="M262.341 2980.13 272.529 2980.13 272.529 2804.16 262.341 2804.16Z" fill="#00688B"/><path d="M300.543 2980.13 310.73 2980.13 310.73 2797.3 300.543 2797.3Z" fill="#00688B"/><path d="M338.745 2980.13 348.932 2980.13 348.932 2793.16 338.745 2793.16Z" fill="#00688B"/><path d="M376.952 2980.13 387.139 2980.13 387.139 2787.46 376.952 2787.46Z" fill="#00688B"/><path d="M415.154 2980.13 425.341 2980.13 425.341 2768.45 415.154 2768.45Z" fill="#00688B"/><path d="M453.361 2980.13 463.548 2980.13 463.548 2755.93 453.361 2755.93Z" fill="#00688B"/><path d="M491.562 2980.13 501.75 2980.13 501.75 2733.19 491.562 2733.19Z" fill="#00688B"/><path d="M529.764 2980.13 539.952 2980.13 539.952 2727.36 529.764 2727.36Z" fill="#00688B"/><path d="M567.971 2980.13 578.157 2980.13 578.157 2719.43 567.971 2719.43Z" fill="#00688B"/><path d="M104.814 2993.16 104.814 2706.4" stroke="#000000" stroke-width="1.42181" stroke-linejoin="round" stroke-miterlimit="10" fill="none"/><path d="M92.2063 2980.18C92.2011 2979.2 92.3 2978.4 92.5082 2977.79 92.706 2977.19 93.0131 2976.72 93.4191 2976.39 93.8199 2976.06 94.3249 2975.9 94.9391 2975.9 95.3867 2975.9 95.7823 2975.99 96.1259 2976.17 96.4642 2976.35 96.7453 2976.61 96.964 2976.95 97.1826 2977.3 97.3543 2977.71 97.4845 2978.2 97.6094 2978.69 97.6719 2979.35 97.6771 2980.18 97.6719 2981.17 97.573 2981.96 97.37 2982.57 97.167 2983.18 96.8651 2983.65 96.4642 2983.97 96.0582 2984.3 95.5481 2984.46 94.9391 2984.47 94.1271 2984.46 93.492 2984.18 93.0339 2983.59 92.477 2982.9 92.2011 2981.76 92.2063 2980.18ZM93.263 2980.18C93.263 2981.56 93.4243 2982.49 93.7471 2982.94 94.0698 2983.4 94.4654 2983.62 94.9391 2983.62 95.4128 2983.62 95.8136 2983.39 96.1363 2982.93 96.459 2982.47 96.6204 2981.56 96.6204 2980.18 96.6204 2978.8 96.459 2977.88 96.1363 2977.43 95.8136 2976.98 95.4076 2976.75 94.9287 2976.75 94.4498 2976.75 94.075 2976.95 93.7939 2977.35 93.44 2977.87 93.263 2978.81 93.263 2980.18Z" fill="#4D4D4D"/><path d="M66.1225 2896.03 67.2 2895.94C67.2781 2896.47 67.4655 2896.86 67.757 2897.13 68.0485 2897.39 68.4025 2897.52 68.8189 2897.52 69.3134 2897.52 69.7298 2897.34 70.0786 2896.96 70.4169 2896.59 70.5887 2896.09 70.5939 2895.47 70.5887 2894.89 70.4221 2894.43 70.0942 2894.08 69.7611 2893.75 69.329 2893.57 68.7981 2893.57 68.4649 2893.57 68.1682 2893.65 67.9028 2893.8 67.6321 2893.95 67.4239 2894.15 67.2729 2894.39L66.3047 2894.26 67.1168 2889.95 71.2914 2889.95 71.2914 2890.93 67.9392 2890.93 67.4863 2893.19C67.986 2892.84 68.517 2892.67 69.074 2892.66 69.8027 2892.67 70.4221 2892.92 70.927 2893.42 71.432 2893.93 71.6818 2894.58 71.687 2895.38 71.6818 2896.15 71.4632 2896.8 71.0207 2897.35 70.4794 2898.03 69.7454 2898.37 68.8189 2898.37 68.0537 2898.37 67.4291 2898.16 66.945 2897.73 66.4609 2897.31 66.185 2896.74 66.1225 2896.03Z" fill="#4D4D4D"/><path d="M72.6442 2894.09C72.639 2893.1 72.7379 2892.3 72.9461 2891.69 73.1439 2891.09 73.451 2890.62 73.8571 2890.29 74.2579 2889.97 74.7628 2889.8 75.377 2889.8 75.8247 2889.8 76.2203 2889.89 76.5638 2890.07 76.9022 2890.25 77.1833 2890.51 77.4019 2890.86 77.6205 2891.2 77.7923 2891.62 77.9224 2892.11 78.0473 2892.59 78.1098 2893.26 78.115 2894.09 78.1098 2895.07 78.0109 2895.87 77.8079 2896.47 77.6049 2897.08 77.303 2897.55 76.9022 2897.88 76.4961 2898.21 75.986 2898.37 75.377 2898.37 74.565 2898.37 73.9299 2898.08 73.4719 2897.5 72.9149 2896.81 72.639 2895.67 72.6442 2894.09ZM73.7009 2894.09C73.7009 2895.47 73.8623 2896.39 74.185 2896.84 74.5077 2897.3 74.9033 2897.52 75.377 2897.52 75.8507 2897.52 76.2515 2897.3 76.5742 2896.84 76.8969 2896.38 77.0583 2895.46 77.0583 2894.09 77.0583 2892.7 76.8969 2891.79 76.5742 2891.34 76.2515 2890.88 75.8455 2890.65 75.3666 2890.65 74.8877 2890.65 74.5129 2890.86 74.2318 2891.25 73.8779 2891.77 73.7009 2892.71 73.7009 2894.09Z" fill="#4D4D4D"/><path d="M79.166 2894.09C79.1608 2893.1 79.2597 2892.3 79.4679 2891.69 79.6657 2891.09 79.9728 2890.62 80.3789 2890.29 80.7797 2889.97 81.2846 2889.8 81.8988 2889.8 82.3465 2889.8 82.7421 2889.89 83.0856 2890.07 83.424 2890.25 83.7051 2890.51 83.9237 2890.86 84.1423 2891.2 84.3141 2891.62 84.4442 2892.11 84.5691 2892.59 84.6316 2893.26 84.6368 2894.09 84.6316 2895.07 84.5327 2895.87 84.3297 2896.47 84.1267 2897.08 83.8248 2897.55 83.424 2897.88 83.018 2898.21 82.5078 2898.37 81.8988 2898.37 81.0868 2898.37 80.4517 2898.08 79.9937 2897.5 79.4367 2896.81 79.1608 2895.67 79.166 2894.09ZM80.2227 2894.09C80.2227 2895.47 80.3841 2896.39 80.7068 2896.84 81.0295 2897.3 81.4251 2897.52 81.8988 2897.52 82.3725 2897.52 82.7733 2897.3 83.096 2896.84 83.4188 2896.38 83.5801 2895.46 83.5801 2894.09 83.5801 2892.7 83.4188 2891.79 83.096 2891.34 82.7733 2890.88 82.3673 2890.65 81.8884 2890.65 81.4095 2890.65 81.0347 2890.86 80.7536 2891.25 80.3997 2891.77 80.2227 2892.71 80.2227 2894.09Z" fill="#4D4D4D"/><path d="M85.6877 2894.09C85.6825 2893.1 85.7814 2892.3 85.9896 2891.69 86.1874 2891.09 86.4945 2890.62 86.9005 2890.29 87.3013 2889.97 87.8063 2889.8 88.4205 2889.8 88.8681 2889.8 89.2637 2889.89 89.6073 2890.07 89.9456 2890.25 90.2267 2890.51 90.4453 2890.86 90.664 2891.2 90.8357 2891.62 90.9659 2892.11 91.0908 2892.59 91.1533 2893.26 91.1585 2894.09 91.1533 2895.07 91.0544 2895.87 90.8514 2896.47 90.6483 2897.08 90.3464 2897.55 89.9456 2897.88 89.5396 2898.21 89.0295 2898.37 88.4205 2898.37 87.6084 2898.37 86.9734 2898.08 86.5153 2897.5 85.9584 2896.81 85.6825 2895.67 85.6877 2894.09ZM86.7444 2894.09C86.7444 2895.47 86.9057 2896.39 87.2285 2896.84 87.5512 2897.3 87.9468 2897.52 88.4205 2897.52 88.8942 2897.52 89.295 2897.3 89.6177 2896.84 89.9404 2896.38 90.1018 2895.46 90.1018 2894.09 90.1018 2892.7 89.9404 2891.79 89.6177 2891.34 89.295 2890.88 88.889 2890.65 88.4101 2890.65 87.9312 2890.65 87.5564 2890.86 87.2753 2891.25 86.9214 2891.77 86.7444 2892.71 86.7444 2894.09Z" fill="#4D4D4D"/><path d="M92.2094 2894.09C92.2042 2893.1 92.3031 2892.3 92.5113 2891.69 92.7091 2891.09 93.0162 2890.62 93.4222 2890.29 93.823 2889.97 94.3279 2889.8 94.9422 2889.8 95.3898 2889.8 95.7854 2889.89 96.129 2890.07 96.4673 2890.25 96.7484 2890.51 96.967 2890.86 97.1856 2891.2 97.3574 2891.62 97.4875 2892.11 97.6125 2892.59 97.6749 2893.26 97.6802 2894.09 97.6749 2895.07 97.576 2895.87 97.373 2896.47 97.17 2897.08 96.8681 2897.55 96.4673 2897.88 96.0613 2898.21 95.5512 2898.37 94.9422 2898.37 94.1301 2898.37 93.4951 2898.08 93.037 2897.5 92.48 2896.81 92.2042 2895.67 92.2094 2894.09ZM93.2661 2894.09C93.2661 2895.47 93.4274 2896.39 93.7501 2896.84 94.0729 2897.3 94.4685 2897.52 94.9422 2897.52 95.4158 2897.52 95.8167 2897.3 96.1394 2896.84 96.4621 2896.38 96.6235 2895.46 96.6235 2894.09 96.6235 2892.7 96.4621 2891.79 96.1394 2891.34 95.8167 2890.88 95.4106 2890.65 94.9317 2890.65 94.4529 2890.65 94.0781 2890.86 93.797 2891.25 93.443 2891.77 93.2661 2892.71 93.2661 2894.09Z" fill="#4D4D4D"/><path d="M63.4783 2812.13 62.4476 2812.13 62.4476 2805.56C62.1978 2805.8 61.8751 2806.03 61.4743 2806.27 61.0682 2806.51 60.7039 2806.69 60.3863 2806.8L60.3863 2805.81C60.9589 2805.54 61.4638 2805.21 61.8959 2804.82 62.3279 2804.44 62.635 2804.06 62.8172 2803.7L63.4783 2803.7Z" fill="#4D4D4D"/><path d="M66.122 2807.99C66.1168 2807 66.2157 2806.2 66.4239 2805.59 66.6217 2804.99 66.9288 2804.52 67.3348 2804.19 67.7356 2803.86 68.2406 2803.7 68.8548 2803.7 69.3025 2803.7 69.6981 2803.79 70.0416 2803.97 70.38 2804.15 70.661 2804.41 70.8797 2804.76 71.0983 2805.1 71.2701 2805.51 71.4002 2806 71.5251 2806.49 71.5876 2807.15 71.5928 2807.99 71.5876 2808.97 71.4887 2809.77 71.2857 2810.37 71.0827 2810.98 70.7808 2811.45 70.38 2811.78 69.9739 2812.1 69.4638 2812.27 68.8548 2812.27 68.0428 2812.27 67.4077 2811.98 66.9497 2811.4 66.3927 2810.7 66.1168 2809.56 66.122 2807.99ZM67.1787 2807.99C67.1787 2809.37 67.34 2810.29 67.6628 2810.74 67.9855 2811.2 68.3811 2811.42 68.8548 2811.42 69.3285 2811.42 69.7293 2811.19 70.052 2810.74 70.3747 2810.28 70.5361 2809.36 70.5361 2807.99 70.5361 2806.6 70.3747 2805.69 70.052 2805.23 69.7293 2804.78 69.3233 2804.55 68.8444 2804.55 68.3655 2804.55 67.9907 2804.76 67.7096 2805.15 67.3557 2805.67 67.1787 2806.61 67.1787 2807.99Z" fill="#4D4D4D"/><path d="M72.6437 2807.99C72.6385 2807 72.7374 2806.2 72.9456 2805.59 73.1434 2804.99 73.4505 2804.52 73.8565 2804.19 74.2573 2803.86 74.7622 2803.7 75.3765 2803.7 75.8241 2803.7 76.2197 2803.79 76.5633 2803.97 76.9016 2804.15 77.1827 2804.41 77.4013 2804.76 77.62 2805.1 77.7917 2805.51 77.9219 2806 78.0468 2806.49 78.1093 2807.15 78.1145 2807.99 78.1093 2808.97 78.0104 2809.77 77.8074 2810.37 77.6043 2810.98 77.3024 2811.45 76.9016 2811.78 76.4956 2812.1 75.9855 2812.27 75.3765 2812.27 74.5644 2812.27 73.9294 2811.98 73.4713 2811.4 72.9144 2810.7 72.6385 2809.56 72.6437 2807.99ZM73.7004 2807.99C73.7004 2809.37 73.8617 2810.29 74.1845 2810.74 74.5072 2811.2 74.9028 2811.42 75.3765 2811.42 75.8502 2811.42 76.251 2811.19 76.5737 2810.74 76.8964 2810.28 77.0578 2809.36 77.0578 2807.99 77.0578 2806.6 76.8964 2805.69 76.5737 2805.23 76.251 2804.78 75.8449 2804.55 75.3661 2804.55 74.8872 2804.55 74.5124 2804.76 74.2313 2805.15 73.8773 2805.67 73.7004 2806.61 73.7004 2807.99Z" fill="#4D4D4D"/><path d="M79.1655 2807.99C79.1603 2807 79.2592 2806.2 79.4674 2805.59 79.6652 2804.99 79.9723 2804.52 80.3783 2804.19 80.7791 2803.86 81.284 2803.7 81.8983 2803.7 82.3459 2803.7 82.7415 2803.79 83.0851 2803.97 83.4234 2804.15 83.7045 2804.41 83.9231 2804.76 84.1418 2805.1 84.3135 2805.51 84.4437 2806 84.5686 2806.49 84.6311 2807.15 84.6363 2807.99 84.6311 2808.97 84.5322 2809.77 84.3292 2810.37 84.1261 2810.98 83.8242 2811.45 83.4234 2811.78 83.0174 2812.1 82.5073 2812.27 81.8983 2812.27 81.0862 2812.27 80.4512 2811.98 79.9931 2811.4 79.4362 2810.7 79.1603 2809.56 79.1655 2807.99ZM80.2222 2807.99C80.2222 2809.37 80.3835 2810.29 80.7063 2810.74 81.029 2811.2 81.4246 2811.42 81.8983 2811.42 82.372 2811.42 82.7728 2811.19 83.0955 2810.74 83.4182 2810.28 83.5796 2809.36 83.5796 2807.99 83.5796 2806.6 83.4182 2805.69 83.0955 2805.23 82.7728 2804.78 82.3668 2804.55 81.8879 2804.55 81.409 2804.55 81.0342 2804.76 80.7531 2805.15 80.3992 2805.67 80.2222 2806.61 80.2222 2807.99Z" fill="#4D4D4D"/><path d="M85.6872 2807.99C85.682 2807 85.7809 2806.2 85.9891 2805.59 86.1869 2804.99 86.494 2804.52 86.9 2804.19 87.3008 2803.86 87.8057 2803.7 88.42 2803.7 88.8676 2803.7 89.2632 2803.79 89.6068 2803.97 89.9451 2804.15 90.2262 2804.41 90.4448 2804.76 90.6634 2805.1 90.8352 2805.51 90.9653 2806 91.0903 2806.49 91.1527 2807.15 91.158 2807.99 91.1527 2808.97 91.0538 2809.77 90.8508 2810.37 90.6478 2810.98 90.3459 2811.45 89.9451 2811.78 89.5391 2812.1 89.029 2812.27 88.42 2812.27 87.6079 2812.27 86.9729 2811.98 86.5148 2811.4 85.9578 2810.7 85.682 2809.56 85.6872 2807.99ZM86.7439 2807.99C86.7439 2809.37 86.9052 2810.29 87.2279 2810.74 87.5507 2811.2 87.9463 2811.42 88.42 2811.42 88.8936 2811.42 89.2944 2811.19 89.6172 2810.74 89.9399 2810.28 90.1013 2809.36 90.1013 2807.99 90.1013 2806.6 89.9399 2805.69 89.6172 2805.23 89.2944 2804.78 88.8884 2804.55 88.4095 2804.55 87.9306 2804.55 87.5559 2804.76 87.2748 2805.15 86.9208 2805.67 86.7439 2806.61 86.7439 2807.99Z" fill="#4D4D4D"/><path d="M92.209 2807.99C92.2038 2807 92.3027 2806.2 92.5109 2805.59 92.7087 2804.99 93.0158 2804.52 93.4218 2804.19 93.8226 2803.86 94.3275 2803.7 94.9418 2803.7 95.3894 2803.7 95.785 2803.79 96.1286 2803.97 96.4669 2804.15 96.748 2804.41 96.9666 2804.76 97.1852 2805.1 97.357 2805.51 97.4871 2806 97.6121 2806.49 97.6745 2807.15 97.6798 2807.99 97.6745 2808.97 97.5756 2809.77 97.3726 2810.37 97.1696 2810.98 96.8677 2811.45 96.4669 2811.78 96.0609 2812.1 95.5508 2812.27 94.9418 2812.27 94.1297 2812.27 93.4947 2811.98 93.0366 2811.4 92.4796 2810.7 92.2038 2809.56 92.209 2807.99ZM93.2657 2807.99C93.2657 2809.37 93.427 2810.29 93.7497 2810.74 94.0725 2811.2 94.4681 2811.42 94.9418 2811.42 95.4154 2811.42 95.8163 2811.19 96.139 2810.74 96.4617 2810.28 96.6231 2809.36 96.6231 2807.99 96.6231 2806.6 96.4617 2805.69 96.139 2805.23 95.8163 2804.78 95.4102 2804.55 94.9314 2804.55 94.4525 2804.55 94.0777 2804.76 93.7966 2805.15 93.4426 2805.67 93.2657 2806.61 93.2657 2807.99Z" fill="#4D4D4D"/><path d="M63.4783 2726.02 62.4476 2726.02 62.4476 2719.46C62.1978 2719.7 61.8751 2719.93 61.4743 2720.17 61.0682 2720.41 60.7039 2720.59 60.3863 2720.7L60.3863 2719.71C60.9589 2719.44 61.4638 2719.11 61.8959 2718.72 62.3279 2718.34 62.635 2717.96 62.8172 2717.6L63.4783 2717.6Z" fill="#4D4D4D"/><path d="M66.122 2723.83 67.1995 2723.73C67.2776 2724.27 67.465 2724.66 67.7565 2724.93 68.048 2725.19 68.4019 2725.32 68.8184 2725.32 69.3129 2725.32 69.7293 2725.13 70.078 2724.76 70.4164 2724.39 70.5882 2723.89 70.5934 2723.27 70.5882 2722.69 70.4216 2722.22 70.0937 2721.88 69.7605 2721.54 69.3285 2721.37 68.7975 2721.37 68.4644 2721.37 68.1677 2721.45 67.9022 2721.6 67.6316 2721.75 67.4233 2721.94 67.2724 2722.18L66.3042 2722.06 67.1162 2717.74 71.2909 2717.74 71.2909 2718.73 67.9387 2718.73 67.4858 2720.99C67.9855 2720.64 68.5164 2720.47 69.0734 2720.46 69.8022 2720.47 70.4216 2720.72 70.9265 2721.22 71.4314 2721.73 71.6813 2722.38 71.6865 2723.18 71.6813 2723.94 71.4627 2724.6 71.0202 2725.15 70.4789 2725.83 69.7449 2726.17 68.8184 2726.17 68.0532 2726.17 67.4286 2725.96 66.9445 2725.53 66.4604 2725.1 66.1845 2724.54 66.122 2723.83Z" fill="#4D4D4D"/><path d="M72.6437 2721.89C72.6385 2720.9 72.7374 2720.1 72.9456 2719.49 73.1434 2718.89 73.4505 2718.42 73.8565 2718.09 74.2573 2717.76 74.7622 2717.6 75.3765 2717.6 75.8241 2717.6 76.2197 2717.69 76.5633 2717.87 76.9016 2718.05 77.1827 2718.31 77.4013 2718.65 77.62 2719 77.7917 2719.41 77.9219 2719.9 78.0468 2720.39 78.1093 2721.05 78.1145 2721.89 78.1093 2722.87 78.0104 2723.67 77.8074 2724.27 77.6043 2724.88 77.3024 2725.35 76.9016 2725.68 76.4956 2726 75.9855 2726.17 75.3765 2726.17 74.5644 2726.17 73.9294 2725.88 73.4713 2725.3 72.9144 2724.6 72.6385 2723.46 72.6437 2721.89ZM73.7004 2721.89C73.7004 2723.27 73.8617 2724.19 74.1845 2724.64 74.5072 2725.1 74.9028 2725.32 75.3765 2725.32 75.8502 2725.32 76.251 2725.09 76.5737 2724.63 76.8964 2724.18 77.0578 2723.26 77.0578 2721.89 77.0578 2720.5 76.8964 2719.59 76.5737 2719.13 76.251 2718.68 75.8449 2718.45 75.3661 2718.45 74.8872 2718.45 74.5124 2718.65 74.2313 2719.05 73.8773 2719.57 73.7004 2720.51 73.7004 2721.89Z" fill="#4D4D4D"/><path d="M79.1655 2721.89C79.1603 2720.9 79.2592 2720.1 79.4674 2719.49 79.6652 2718.89 79.9723 2718.42 80.3783 2718.09 80.7791 2717.76 81.284 2717.6 81.8983 2717.6 82.3459 2717.6 82.7415 2717.69 83.0851 2717.87 83.4234 2718.05 83.7045 2718.31 83.9231 2718.65 84.1418 2719 84.3135 2719.41 84.4437 2719.9 84.5686 2720.39 84.6311 2721.05 84.6363 2721.89 84.6311 2722.87 84.5322 2723.67 84.3292 2724.27 84.1261 2724.88 83.8242 2725.35 83.4234 2725.68 83.0174 2726 82.5073 2726.17 81.8983 2726.17 81.0862 2726.17 80.4512 2725.88 79.9931 2725.3 79.4362 2724.6 79.1603 2723.46 79.1655 2721.89ZM80.2222 2721.89C80.2222 2723.27 80.3835 2724.19 80.7063 2724.64 81.029 2725.1 81.4246 2725.32 81.8983 2725.32 82.372 2725.32 82.7728 2725.09 83.0955 2724.63 83.4182 2724.18 83.5796 2723.26 83.5796 2721.89 83.5796 2720.5 83.4182 2719.59 83.0955 2719.13 82.7728 2718.68 82.3668 2718.45 81.8879 2718.45 81.409 2718.45 81.0342 2718.65 80.7531 2719.05 80.3992 2719.57 80.2222 2720.51 80.2222 2721.89Z" fill="#4D4D4D"/><path d="M85.6872 2721.89C85.682 2720.9 85.7809 2720.1 85.9891 2719.49 86.1869 2718.89 86.494 2718.42 86.9 2718.09 87.3008 2717.76 87.8057 2717.6 88.42 2717.6 88.8676 2717.6 89.2632 2717.69 89.6068 2717.87 89.9451 2718.05 90.2262 2718.31 90.4448 2718.65 90.6634 2719 90.8352 2719.41 90.9653 2719.9 91.0903 2720.39 91.1527 2721.05 91.158 2721.89 91.1527 2722.87 91.0538 2723.67 90.8508 2724.27 90.6478 2724.88 90.3459 2725.35 89.9451 2725.68 89.5391 2726 89.029 2726.17 88.42 2726.17 87.6079 2726.17 86.9729 2725.88 86.5148 2725.3 85.9578 2724.6 85.682 2723.46 85.6872 2721.89ZM86.7439 2721.89C86.7439 2723.27 86.9052 2724.19 87.2279 2724.64 87.5507 2725.1 87.9463 2725.32 88.42 2725.32 88.8936 2725.32 89.2944 2725.09 89.6172 2724.63 89.9399 2724.18 90.1013 2723.26 90.1013 2721.89 90.1013 2720.5 89.9399 2719.59 89.6172 2719.13 89.2944 2718.68 88.8884 2718.45 88.4095 2718.45 87.9306 2718.45 87.5559 2718.65 87.2748 2719.05 86.9208 2719.57 86.7439 2720.51 86.7439 2721.89Z" fill="#4D4D4D"/><path d="M92.209 2721.89C92.2038 2720.9 92.3027 2720.1 92.5109 2719.49 92.7087 2718.89 93.0158 2718.42 93.4218 2718.09 93.8226 2717.76 94.3275 2717.6 94.9418 2717.6 95.3894 2717.6 95.785 2717.69 96.1286 2717.87 96.4669 2718.05 96.748 2718.31 96.9666 2718.65 97.1852 2719 97.357 2719.41 97.4871 2719.9 97.6121 2720.39 97.6745 2721.05 97.6798 2721.89 97.6745 2722.87 97.5756 2723.67 97.3726 2724.27 97.1696 2724.88 96.8677 2725.35 96.4669 2725.68 96.0609 2726 95.5508 2726.17 94.9418 2726.17 94.1297 2726.17 93.4947 2725.88 93.0366 2725.3 92.4796 2724.6 92.2038 2723.46 92.209 2721.89ZM93.2657 2721.89C93.2657 2723.27 93.427 2724.19 93.7497 2724.64 94.0725 2725.1 94.4681 2725.32 94.9418 2725.32 95.4154 2725.32 95.8163 2725.09 96.139 2724.63 96.4617 2724.18 96.6231 2723.26 96.6231 2721.89 96.6231 2720.5 96.4617 2719.59 96.139 2719.13 95.8163 2718.68 95.4102 2718.45 94.9314 2718.45 94.4525 2718.45 94.0777 2718.65 93.7966 2719.05 93.4426 2719.57 93.2657 2720.51 93.2657 2721.89Z" fill="#4D4D4D"/><path d="M101.159 2980.13 104.814 2980.13" stroke="#333333" stroke-width="1.42181" stroke-linejoin="round" stroke-miterlimit="10" fill="none"/><path d="M101.159 2894.03 104.814 2894.03" stroke="#333333" stroke-width="1.42181" stroke-linejoin="round" stroke-miterlimit="10" fill="none"/><path d="M101.159 2807.93 104.814 2807.93" stroke="#333333" stroke-width="1.42181" stroke-linejoin="round" stroke-miterlimit="10" fill="none"/><path d="M101.159 2721.83 104.814 2721.83" stroke="#333333" stroke-width="1.42181" stroke-linejoin="round" stroke-miterlimit="10" fill="none"/><path d="M104.814 2993.16 600.698 2993.16" stroke="#000000" stroke-width="1.42181" stroke-linejoin="round" stroke-miterlimit="10" fill="none"/><path d="M142.635 2996.81 142.635 2993.16" stroke="#333333" stroke-width="1.42181" stroke-linejoin="round" stroke-miterlimit="10" fill="none"/><path d="M180.837 2996.81 180.837 2993.16" stroke="#333333" stroke-width="1.42181" stroke-linejoin="round" stroke-miterlimit="10" fill="none"/><path d="M219.044 2996.81 219.044 2993.16" stroke="#333333" stroke-width="1.42181" stroke-linejoin="round" stroke-miterlimit="10" fill="none"/><path d="M257.245 2996.81 257.245 2993.16" stroke="#333333" stroke-width="1.42181" stroke-linejoin="round" stroke-miterlimit="10" fill="none"/><path d="M295.447 2996.81 295.447 2993.16" stroke="#333333" stroke-width="1.42181" stroke-linejoin="round" stroke-miterlimit="10" fill="none"/><path d="M333.654 2996.81 333.654 2993.16" stroke="#333333" stroke-width="1.42181" stroke-linejoin="round" stroke-miterlimit="10" fill="none"/><path d="M371.856 2996.81 371.856 2993.16" stroke="#333333" stroke-width="1.42181" stroke-linejoin="round" stroke-miterlimit="10" fill="none"/><path d="M410.063 2996.81 410.063 2993.16" stroke="#333333" stroke-width="1.42181" stroke-linejoin="round" stroke-miterlimit="10" fill="none"/><path d="M448.265 2996.81 448.265 2993.16" stroke="#333333" stroke-width="1.42181" stroke-linejoin="round" stroke-miterlimit="10" fill="none"/><path d="M486.467 2996.81 486.467 2993.16" stroke="#333333" stroke-width="1.42181" stroke-linejoin="round" stroke-miterlimit="10" fill="none"/><path d="M524.674 2996.81 524.674 2993.16" stroke="#333333" stroke-width="1.42181" stroke-linejoin="round" stroke-miterlimit="10" fill="none"/><path d="M562.876 2996.81 562.876 2993.16" stroke="#333333" stroke-width="1.42181" stroke-linejoin="round" stroke-miterlimit="10" fill="none"/><path d="M143.744 3008.13 142.713 3008.13 142.713 3001.56C142.464 3001.8 142.141 3002.03 141.74 3002.27 141.334 3002.51 140.97 3002.69 140.652 3002.8L140.652 3001.81C141.225 3001.54 141.73 3001.21 142.162 3000.82 142.594 3000.44 142.901 3000.06 143.083 2999.7L143.744 2999.7Z" fill="#4D4D4D"/><path d="M183.481 3007.14 183.481 3008.13 177.932 3008.13C177.922 3007.88 177.964 3007.64 178.052 3007.41 178.193 3007.03 178.416 3006.66 178.729 3006.29 179.036 3005.93 179.489 3005.51 180.082 3005.02 180.993 3004.28 181.607 3003.69 181.93 3003.24 182.242 3002.81 182.404 3002.4 182.409 3002 182.404 3001.6 182.258 3001.25 181.972 3000.97 181.675 3000.69 181.295 3000.55 180.832 3000.55 180.332 3000.55 179.936 3000.7 179.64 3001 179.338 3001.3 179.187 3001.71 179.187 3002.23L178.13 3002.12C178.198 3001.34 178.468 3000.74 178.947 3000.32 179.416 2999.91 180.051 2999.7 180.853 2999.7 181.654 2999.7 182.294 2999.93 182.763 3000.37 183.231 3000.82 183.466 3001.37 183.471 3002.03 183.466 3002.37 183.398 3002.7 183.263 3003.02 183.127 3003.34 182.898 3003.69 182.581 3004.04 182.258 3004.4 181.727 3004.89 180.993 3005.52 180.368 3006.04 179.973 3006.39 179.796 3006.58 179.619 3006.77 179.473 3006.95 179.364 3007.14Z" fill="#4D4D4D"/><path d="M216.28 3005.91 217.311 3005.77C217.425 3006.36 217.628 3006.78 217.914 3007.04 218.196 3007.3 218.539 3007.42 218.95 3007.42 219.429 3007.42 219.84 3007.26 220.179 3006.92 220.512 3006.59 220.678 3006.17 220.684 3005.67 220.678 3005.2 220.522 3004.81 220.215 3004.5 219.903 3004.2 219.512 3004.04 219.039 3004.04 218.841 3004.04 218.596 3004.08 218.31 3004.15L218.425 3003.25C218.492 3003.26 218.544 3003.26 218.591 3003.26 219.028 3003.26 219.424 3003.15 219.778 3002.92 220.122 3002.69 220.298 3002.34 220.304 3001.86 220.298 3001.48 220.168 3001.17 219.919 3000.92 219.658 3000.68 219.33 3000.55 218.93 3000.55 218.523 3000.55 218.19 3000.68 217.925 3000.93 217.654 3001.18 217.482 3001.56 217.41 3002.06L216.379 3001.87C216.504 3001.19 216.79 3000.65 217.238 3000.27 217.685 2999.89 218.242 2999.7 218.909 2999.7 219.367 2999.7 219.788 2999.8 220.174 3000 220.559 3000.19 220.85 3000.46 221.053 3000.8 221.256 3001.14 221.36 3001.5 221.36 3001.88 221.36 3002.24 221.261 3002.58 221.069 3002.87 220.871 3003.17 220.585 3003.4 220.205 3003.58 220.699 3003.7 221.084 3003.94 221.36 3004.29 221.636 3004.66 221.772 3005.11 221.777 3005.65 221.772 3006.39 221.506 3007.01 220.975 3007.51 220.439 3008.02 219.762 3008.27 218.945 3008.28 218.206 3008.27 217.592 3008.06 217.108 3007.62 216.618 3007.18 216.342 3006.61 216.28 3005.91Z" fill="#4D4D4D"/><path d="M257.777 3008.13 257.777 3006.12 254.138 3006.12 254.138 3005.17 257.969 2999.73 258.807 2999.73 258.807 3005.17 259.942 3005.17 259.942 3006.12 258.807 3006.12 258.807 3008.13ZM257.777 3005.17 257.777 3001.39 255.148 3005.17Z" fill="#4D4D4D"/><path d="M292.678 3005.93 293.756 3005.84C293.834 3006.37 294.021 3006.76 294.313 3007.03 294.604 3007.29 294.958 3007.42 295.375 3007.42 295.869 3007.42 296.286 3007.24 296.634 3006.86 296.973 3006.49 297.145 3005.99 297.15 3005.37 297.145 3004.79 296.978 3004.33 296.65 3003.98 296.317 3003.64 295.885 3003.47 295.354 3003.47 295.021 3003.47 294.724 3003.55 294.459 3003.7 294.188 3003.85 293.98 3004.04 293.829 3004.28L292.861 3004.16 293.673 2999.84 297.847 2999.84 297.847 3000.83 294.495 3000.83 294.042 3003.09C294.542 3002.74 295.073 3002.57 295.63 3002.56 296.359 3002.57 296.978 3002.82 297.483 3003.32 297.988 3003.83 298.238 3004.48 298.243 3005.28 298.238 3006.04 298.019 3006.7 297.577 3007.25 297.035 3007.93 296.301 3008.27 295.375 3008.27 294.61 3008.27 293.985 3008.06 293.501 3007.63 293.017 3007.2 292.741 3006.64 292.678 3005.93Z" fill="#4D4D4D"/><path d="M336.231 3001.79 335.206 3001.87C335.112 3001.47 334.982 3001.17 334.815 3000.98 334.534 3000.7 334.191 3000.55 333.785 3000.55 333.457 3000.55 333.165 3000.64 332.921 3000.82 332.593 3001.06 332.338 3001.41 332.156 3001.86 331.963 3002.31 331.869 3002.96 331.864 3003.8 332.109 3003.42 332.411 3003.14 332.77 3002.96 333.129 3002.77 333.504 3002.69 333.899 3002.68 334.581 3002.69 335.164 3002.94 335.654 3003.44 336.132 3003.95 336.377 3004.6 336.382 3005.4 336.377 3005.93 336.263 3006.42 336.039 3006.87 335.81 3007.32 335.497 3007.67 335.102 3007.91 334.701 3008.15 334.253 3008.27 333.754 3008.27 332.889 3008.27 332.187 3007.95 331.651 3007.32 331.104 3006.69 330.833 3005.65 330.839 3004.2 330.833 3002.58 331.13 3001.4 331.734 3000.66 332.254 3000.02 332.962 2999.7 333.847 2999.7 334.508 2999.7 335.05 2999.89 335.471 3000.26 335.893 3000.63 336.143 3001.14 336.231 3001.79ZM332.02 3005.41C332.02 3005.76 332.093 3006.11 332.244 3006.43 332.395 3006.76 332.608 3007 332.879 3007.17 333.15 3007.34 333.431 3007.42 333.733 3007.42 334.165 3007.42 334.54 3007.25 334.857 3006.9 335.164 3006.55 335.32 3006.07 335.326 3005.46 335.32 3004.89 335.169 3004.43 334.862 3004.09 334.55 3003.76 334.16 3003.6 333.696 3003.59 333.223 3003.6 332.827 3003.76 332.504 3004.09 332.182 3004.43 332.02 3004.87 332.02 3005.41Z" fill="#4D4D4D"/><path d="M369.155 3000.83 369.155 2999.84 374.589 2999.84 374.589 3000.64C374.048 3001.21 373.517 3001.97 372.996 3002.91 372.465 3003.86 372.065 3004.83 371.784 3005.82 371.575 3006.53 371.44 3007.29 371.388 3008.13L370.326 3008.13C370.337 3007.47 370.467 3006.67 370.716 3005.74 370.961 3004.8 371.32 3003.9 371.784 3003.03 372.247 3002.16 372.741 3001.43 373.267 3000.83Z" fill="#4D4D4D"/><path d="M408.877 3003.57C408.445 3003.42 408.127 3003.2 407.924 3002.91 407.716 3002.62 407.617 3002.27 407.617 3001.86 407.617 3001.25 407.836 3000.74 408.273 3000.32 408.71 2999.91 409.293 2999.7 410.027 2999.7 410.761 2999.7 411.349 2999.92 411.797 3000.34 412.239 3000.77 412.463 3001.28 412.468 3001.89 412.463 3002.28 412.364 3002.62 412.161 3002.91 411.953 3003.2 411.641 3003.42 411.23 3003.57 411.745 3003.75 412.135 3004.02 412.406 3004.39 412.671 3004.77 412.807 3005.22 412.812 3005.73 412.807 3006.45 412.552 3007.05 412.047 3007.54 411.537 3008.03 410.87 3008.27 410.048 3008.27 409.215 3008.27 408.549 3008.03 408.039 3007.54 407.529 3007.05 407.274 3006.43 407.279 3005.7 407.274 3005.15 407.414 3004.7 407.695 3004.33 407.971 3003.96 408.361 3003.71 408.877 3003.57ZM408.674 3001.83C408.669 3002.23 408.799 3002.55 409.054 3002.8 409.309 3003.06 409.642 3003.19 410.053 3003.18 410.449 3003.19 410.771 3003.06 411.027 3002.81 411.276 3002.56 411.401 3002.25 411.407 3001.88 411.401 3001.51 411.271 3001.19 411.016 3000.93 410.751 3000.68 410.428 3000.55 410.043 3000.55 409.642 3000.55 409.314 3000.68 409.059 3000.93 408.799 3001.18 408.669 3001.48 408.674 3001.83ZM408.341 3005.71C408.335 3006 408.403 3006.28 408.549 3006.56 408.684 3006.83 408.892 3007.05 409.168 3007.2 409.444 3007.35 409.741 3007.42 410.058 3007.42 410.548 3007.42 410.954 3007.27 411.276 3006.95 411.594 3006.63 411.755 3006.23 411.76 3005.74 411.755 3005.24 411.589 3004.84 411.261 3004.51 410.928 3004.19 410.516 3004.02 410.022 3004.02 409.538 3004.02 409.137 3004.18 408.82 3004.5 408.497 3004.83 408.335 3005.23 408.341 3005.71Z" fill="#4D4D4D"/><path d="M445.647 3006.18 446.641 3006.09C446.719 3006.56 446.881 3006.9 447.12 3007.11 447.354 3007.32 447.656 3007.42 448.031 3007.42 448.343 3007.42 448.624 3007.35 448.864 3007.2 449.103 3007.06 449.296 3006.87 449.452 3006.62 449.598 3006.38 449.728 3006.05 449.832 3005.64 449.936 3005.23 449.988 3004.82 449.988 3004.38 449.988 3004.34 449.983 3004.27 449.983 3004.18 449.775 3004.51 449.494 3004.78 449.14 3004.98 448.775 3005.19 448.39 3005.28 447.979 3005.28 447.282 3005.28 446.693 3005.03 446.214 3004.52 445.73 3004.02 445.491 3003.36 445.496 3002.53 445.491 3001.68 445.741 3001 446.246 3000.48 446.745 2999.96 447.375 2999.7 448.135 2999.7 448.677 2999.7 449.176 2999.85 449.629 3000.14 450.082 3000.44 450.426 3000.85 450.66 3001.4 450.894 3001.94 451.009 3002.73 451.014 3003.76 451.009 3004.84 450.894 3005.69 450.665 3006.32 450.431 3006.96 450.082 3007.44 449.624 3007.77 449.161 3008.11 448.624 3008.27 448.005 3008.27 447.349 3008.27 446.813 3008.09 446.397 3007.73 445.98 3007.36 445.73 3006.85 445.647 3006.18ZM449.869 3002.48C449.863 3001.9 449.707 3001.43 449.395 3001.07 449.077 3000.73 448.697 3000.55 448.26 3000.55 447.797 3000.55 447.396 3000.74 447.063 3001.11 446.719 3001.49 446.553 3001.97 446.553 3002.57 446.553 3003.1 446.714 3003.54 447.037 3003.87 447.36 3004.21 447.755 3004.37 448.229 3004.37 448.703 3004.37 449.093 3004.21 449.405 3003.87 449.707 3003.54 449.863 3003.08 449.869 3002.48Z" fill="#4D4D4D"/><path d="M484.311 3008.13 483.28 3008.13 483.28 3001.56C483.031 3001.8 482.708 3002.03 482.307 3002.27 481.901 3002.51 481.537 3002.69 481.219 3002.8L481.219 3001.81C481.792 3001.54 482.297 3001.21 482.729 3000.82 483.161 3000.44 483.468 3000.06 483.65 2999.7L484.311 2999.7Z" fill="#4D4D4D"/><path d="M486.955 3003.99C486.949 3003 487.048 3002.2 487.257 3001.59 487.454 3000.99 487.761 3000.52 488.167 3000.19 488.568 2999.87 489.073 2999.7 489.687 2999.7 490.135 2999.7 490.531 2999.79 490.874 2999.97 491.213 3000.15 491.494 3000.41 491.712 3000.76 491.931 3001.1 492.103 3001.52 492.233 3002 492.358 3002.49 492.42 3003.16 492.425 3003.99 492.42 3004.97 492.321 3005.77 492.118 3006.37 491.915 3006.98 491.613 3007.45 491.213 3007.78 490.807 3008.11 490.296 3008.27 489.687 3008.27 488.875 3008.27 488.24 3007.98 487.782 3007.4 487.225 3006.7 486.949 3005.56 486.955 3003.99ZM488.011 3003.99C488.011 3005.37 488.173 3006.29 488.495 3006.74 488.818 3007.2 489.214 3007.42 489.687 3007.42 490.161 3007.42 490.562 3007.19 490.885 3006.74 491.207 3006.28 491.369 3005.36 491.369 3003.99 491.369 3002.6 491.207 3001.69 490.885 3001.23 490.562 3000.78 490.156 3000.55 489.677 3000.55 489.198 3000.55 488.823 3000.76 488.542 3001.15 488.188 3001.67 488.011 3002.61 488.011 3003.99Z" fill="#4D4D4D"/><path d="M522.518 3008.13 521.488 3008.13 521.488 3001.56C521.238 3001.8 520.915 3002.03 520.514 3002.27 520.108 3002.51 519.744 3002.69 519.426 3002.8L519.426 3001.81C519.999 3001.54 520.504 3001.21 520.936 3000.82 521.368 3000.44 521.675 3000.06 521.857 2999.7L522.518 2999.7Z" fill="#4D4D4D"/><path d="M529.04 3008.13 528.009 3008.13 528.009 3001.56C527.759 3001.8 527.437 3002.03 527.036 3002.27 526.63 3002.51 526.265 3002.69 525.948 3002.8L525.948 3001.81C526.52 3001.54 527.025 3001.21 527.457 3000.82 527.889 3000.44 528.196 3000.06 528.379 2999.7L529.04 2999.7Z" fill="#4D4D4D"/><path d="M560.72 3008.13 559.689 3008.13 559.689 3001.56C559.439 3001.8 559.117 3002.03 558.716 3002.27 558.31 3002.51 557.946 3002.69 557.628 3002.8L557.628 3001.81C558.201 3001.54 558.706 3001.21 559.138 3000.82 559.57 3000.44 559.877 3000.06 560.059 2999.7L560.72 2999.7Z" fill="#4D4D4D"/><path d="M568.777 3007.14 568.777 3008.13 563.228 3008.13C563.218 3007.88 563.259 3007.64 563.348 3007.41 563.488 3007.03 563.712 3006.66 564.025 3006.29 564.332 3005.93 564.785 3005.51 565.378 3005.02 566.289 3004.28 566.903 3003.69 567.226 3003.24 567.538 3002.81 567.7 3002.4 567.705 3002 567.7 3001.6 567.554 3001.25 567.268 3000.97 566.971 3000.69 566.591 3000.55 566.128 3000.55 565.628 3000.55 565.232 3000.7 564.936 3001 564.634 3001.3 564.483 3001.71 564.483 3002.23L563.426 3002.12C563.494 3001.34 563.764 3000.74 564.243 3000.32 564.712 2999.91 565.347 2999.7 566.148 2999.7 566.95 2999.7 567.59 2999.93 568.059 3000.37 568.527 3000.82 568.761 3001.37 568.767 3002.03 568.761 3002.37 568.694 3002.7 568.558 3003.02 568.423 3003.34 568.194 3003.69 567.877 3004.04 567.554 3004.4 567.023 3004.89 566.289 3005.52 565.664 3006.04 565.269 3006.39 565.092 3006.58 564.915 3006.77 564.769 3006.95 564.66 3007.14Z" fill="#4D4D4D"/><path d="M340.264 3024.93 340.264 3015.68 336.808 3015.68 336.808 3014.44 345.126 3014.44 345.126 3015.68 341.654 3015.68 341.654 3024.93Z"/><path d="M346.393 3015.92 346.393 3014.44 347.679 3014.44 347.679 3015.92ZM346.393 3024.93 346.393 3017.33 347.679 3017.33 347.679 3024.93Z"/><path d="M349.644 3024.93 349.644 3017.33 350.795 3017.33 350.795 3018.4C351.029 3018.03 351.346 3017.73 351.747 3017.5 352.138 3017.28 352.591 3017.17 353.101 3017.16 353.658 3017.17 354.121 3017.28 354.485 3017.52 354.844 3017.75 355.094 3018.08 355.245 3018.49 355.844 3017.61 356.63 3017.17 357.593 3017.16 358.342 3017.17 358.92 3017.38 359.331 3017.79 359.732 3018.21 359.935 3018.85 359.94 3019.72L359.94 3024.93 358.66 3024.93 358.66 3020.15C358.655 3019.64 358.613 3019.27 358.535 3019.04 358.447 3018.81 358.296 3018.63 358.082 3018.49 357.858 3018.35 357.598 3018.28 357.307 3018.28 356.765 3018.28 356.323 3018.46 355.974 3018.81 355.62 3019.17 355.443 3019.74 355.448 3020.52L355.448 3024.93 354.157 3024.93 354.157 3019.99C354.157 3019.43 354.048 3019 353.84 3018.71 353.626 3018.43 353.288 3018.28 352.814 3018.28 352.45 3018.28 352.112 3018.38 351.805 3018.56 351.497 3018.76 351.274 3019.04 351.138 3019.4 350.993 3019.77 350.925 3020.3 350.93 3020.99L350.93 3024.93Z"/><path d="M367.055 3022.49 368.387 3022.65C368.174 3023.44 367.783 3024.04 367.216 3024.47 366.649 3024.89 365.925 3025.11 365.045 3025.11 363.926 3025.11 363.041 3024.77 362.396 3024.08 361.74 3023.4 361.417 3022.44 361.423 3021.2 361.417 3019.92 361.745 3018.93 362.412 3018.23 363.067 3017.52 363.921 3017.17 364.973 3017.16 365.982 3017.17 366.815 3017.51 367.461 3018.2 368.106 3018.9 368.429 3019.87 368.429 3021.12 368.429 3021.2 368.424 3021.31 368.424 3021.46L362.755 3021.46C362.797 3022.3 363.036 3022.94 363.463 3023.38 363.885 3023.83 364.41 3024.06 365.051 3024.05 365.519 3024.06 365.925 3023.93 366.258 3023.68 366.591 3023.43 366.857 3023.03 367.055 3022.49ZM362.828 3020.41 367.07 3020.41C367.013 3019.77 366.846 3019.29 366.581 3018.96 366.165 3018.47 365.634 3018.22 364.988 3018.22 364.39 3018.22 363.895 3018.42 363.494 3018.81 363.088 3019.21 362.864 3019.74 362.828 3020.41Z"/><path d="M52.7918 2934.96 42.2979 2930.93 42.2979 2929.44 52.7918 2925.14 52.7918 2926.73 49.6166 2927.95 49.6166 2932.33 52.7918 2933.49ZM48.4818 2931.93 48.4818 2928.38 45.5772 2929.47C44.6975 2929.81 43.974 2930.06 43.4014 2930.21 44.0781 2930.35 44.7444 2930.54 45.4055 2930.78Z"/><path d="M52.7918 2922.09 45.192 2924.97 45.192 2923.62 49.7415 2921.99C50.236 2921.82 50.7461 2921.65 51.277 2921.5 50.8762 2921.39 50.3973 2921.23 49.83 2921.02L45.192 2919.33 45.192 2918 52.7918 2920.88Z"/><path d="M50.3453 2911.66 50.5067 2910.33C51.2927 2910.55 51.8965 2910.94 52.3233 2911.5 52.7501 2912.07 52.9636 2912.79 52.9636 2913.67 52.9636 2914.79 52.6252 2915.68 51.9381 2916.32 51.2562 2916.98 50.2932 2917.3 49.0544 2917.3 47.7791 2917.3 46.7901 2916.97 46.0821 2916.31 45.3794 2915.65 45.0255 2914.8 45.0203 2913.75 45.0255 2912.74 45.369 2911.9 46.0613 2911.26 46.7536 2910.61 47.727 2910.29 48.9763 2910.29 49.0544 2910.29 49.1689 2910.3 49.3198 2910.3L49.3198 2915.96C50.1579 2915.92 50.7982 2915.68 51.2406 2915.26 51.6883 2914.83 51.9121 2914.31 51.9069 2913.67 51.9121 2913.2 51.7872 2912.79 51.5373 2912.46 51.2927 2912.13 50.897 2911.86 50.3453 2911.66ZM48.2632 2915.89 48.2632 2911.65C47.6229 2911.71 47.144 2911.87 46.8213 2912.14 46.3268 2912.55 46.0769 2913.09 46.0769 2913.73 46.0769 2914.33 46.2747 2914.82 46.6703 2915.23 47.0659 2915.63 47.5969 2915.85 48.2632 2915.89Z"/><path d="M52.7918 2908.73 45.192 2908.73 45.192 2907.57 46.3424 2907.57C45.8063 2907.28 45.4523 2907.01 45.2805 2906.75 45.1088 2906.51 45.0255 2906.23 45.0203 2905.92 45.0255 2905.5 45.1608 2905.05 45.4315 2904.6L46.6287 2905.04C46.4465 2905.36 46.3528 2905.68 46.3476 2905.99 46.3528 2906.28 46.4361 2906.53 46.6027 2906.75 46.7745 2906.98 47.0087 2907.14 47.3106 2907.23 47.7687 2907.38 48.2736 2907.45 48.8149 2907.44L52.7918 2907.44Z"/><path d="M51.8548 2898.88C52.2608 2899.36 52.5471 2899.81 52.7137 2900.25 52.8803 2900.69 52.9636 2901.17 52.9636 2901.67 52.9636 2902.51 52.7606 2903.15 52.3545 2903.6 51.9485 2904.05 51.428 2904.27 50.7877 2904.27 50.4182 2904.27 50.0798 2904.19 49.7675 2904.02 49.4656 2903.85 49.2157 2903.63 49.0283 2903.35 48.841 2903.08 48.7004 2902.77 48.6067 2902.42 48.539 2902.18 48.4766 2901.8 48.4089 2901.28 48.2944 2900.25 48.1434 2899.48 47.9665 2898.98 47.7895 2898.98 47.6802 2898.98 47.6333 2898.98 47.1076 2898.98 46.738 2899.1 46.5246 2899.34 46.2383 2899.67 46.0926 2900.16 46.0873 2900.81 46.0926 2901.42 46.1967 2901.86 46.4049 2902.15 46.6183 2902.44 46.9931 2902.66 47.5292 2902.79L47.3574 2904.05C46.8213 2903.94 46.3893 2903.75 46.0561 2903.48 45.7282 2903.22 45.4731 2902.84 45.2909 2902.34 45.114 2901.85 45.0255 2901.28 45.0203 2900.62 45.0255 2899.98 45.0983 2899.44 45.2493 2899.04 45.4055 2898.63 45.598 2898.34 45.8271 2898.14 46.0561 2897.96 46.3476 2897.82 46.7016 2897.74 46.9202 2897.7 47.3158 2897.68 47.8884 2897.68L49.6061 2897.68C50.8034 2897.68 51.5633 2897.65 51.8809 2897.6 52.1984 2897.54 52.5003 2897.44 52.7918 2897.27L52.7918 2898.62C52.5263 2898.75 52.214 2898.84 51.8548 2898.88ZM48.9763 2898.98C49.1689 2899.45 49.3302 2900.15 49.4656 2901.08 49.5437 2901.62 49.6322 2901.99 49.7259 2902.21 49.8248 2902.43 49.9653 2902.6 50.1423 2902.72 50.3297 2902.84 50.5327 2902.9 50.7513 2902.9 51.1001 2902.9 51.3863 2902.77 51.6102 2902.51 51.8444 2902.24 51.9589 2901.86 51.9537 2901.37 51.9589 2900.87 51.8496 2900.43 51.631 2900.04 51.4176 2899.66 51.1209 2899.37 50.7357 2899.19 50.4546 2899.05 50.0226 2898.99 49.45 2898.98Z"/><path d="M53.4216 2895.92 53.609 2894.67C53.989 2894.61 54.2701 2894.47 54.4523 2894.23 54.6865 2893.91 54.8062 2893.48 54.8114 2892.92 54.8062 2892.33 54.6865 2891.86 54.4523 2891.54 54.2076 2891.22 53.8745 2891 53.4529 2890.88 53.1874 2890.81 52.6408 2890.78 51.7976 2890.79 52.4638 2891.35 52.7918 2892.06 52.7918 2892.89 52.7918 2893.94 52.417 2894.75 51.6622 2895.32 50.9127 2895.89 50.007 2896.18 48.9503 2896.17 48.2267 2896.18 47.5605 2896.05 46.941 2895.78 46.332 2895.52 45.8583 2895.14 45.52 2894.64 45.192 2894.15 45.0255 2893.56 45.0203 2892.88 45.0255 2891.99 45.3846 2891.25 46.1082 2890.66L45.192 2890.66 45.192 2889.48 51.7611 2889.48C52.9427 2889.48 53.7808 2889.6 54.2753 2889.84 54.7698 2890.08 55.1602 2890.46 55.4465 2890.98 55.7328 2891.51 55.8733 2892.15 55.8785 2892.91 55.8733 2893.82 55.6703 2894.56 55.2643 2895.11 54.8531 2895.67 54.2389 2895.94 53.4216 2895.92ZM48.8566 2894.85C49.856 2894.85 50.5847 2894.65 51.0376 2894.26 51.5009 2893.86 51.7299 2893.37 51.7247 2892.77 51.7299 2892.18 51.5009 2891.69 51.0428 2891.28 50.5899 2890.89 49.8768 2890.68 48.8982 2890.68 47.9717 2890.68 47.269 2890.89 46.7953 2891.3 46.3268 2891.71 46.0926 2892.21 46.0873 2892.79 46.0926 2893.36 46.3268 2893.85 46.7849 2894.25 47.2533 2894.65 47.9404 2894.85 48.8566 2894.85Z"/><path d="M50.3453 2882.33 50.5067 2880.99C51.2927 2881.21 51.8965 2881.6 52.3233 2882.17 52.7501 2882.73 52.9636 2883.46 52.9636 2884.34 52.9636 2885.46 52.6252 2886.34 51.9381 2886.99 51.2562 2887.64 50.2932 2887.96 49.0544 2887.96 47.7791 2887.96 46.7901 2887.64 46.0821 2886.97 45.3794 2886.31 45.0255 2885.46 45.0203 2884.41 45.0255 2883.4 45.369 2882.57 46.0613 2881.92 46.7536 2881.28 47.727 2880.95 48.9763 2880.95 49.0544 2880.95 49.1689 2880.96 49.3198 2880.96L49.3198 2886.63C50.1579 2886.59 50.7982 2886.35 51.2406 2885.92 51.6883 2885.5 51.9121 2884.97 51.9069 2884.33 51.9121 2883.86 51.7872 2883.46 51.5373 2883.12 51.2927 2882.79 50.897 2882.53 50.3453 2882.33ZM48.2632 2886.55 48.2632 2882.31C47.6229 2882.37 47.144 2882.54 46.8213 2882.8 46.3268 2883.22 46.0769 2883.75 46.0769 2884.39 46.0769 2884.99 46.2747 2885.49 46.6703 2885.89 47.0659 2886.29 47.5969 2886.52 48.2632 2886.55Z"/><path d="M52.7918 2875.14 42.2979 2875.14 42.2979 2871.52C42.2979 2870.71 42.3499 2870.09 42.4488 2869.66 42.5894 2869.06 42.8392 2868.55 43.2036 2868.12 43.6721 2867.57 44.2707 2867.16 44.9942 2866.88 45.7282 2866.61 46.561 2866.47 47.4876 2866.47 48.2892 2866.47 48.9971 2866.56 49.6113 2866.75 50.2308 2866.93 50.7357 2867.17 51.1365 2867.46 51.5425 2867.76 51.86 2868.07 52.0891 2868.42 52.3181 2868.77 52.4951 2869.19 52.6148 2869.67 52.7345 2870.16 52.7918 2870.72 52.7918 2871.35ZM51.5529 2873.75 51.5529 2871.51C51.5581 2870.83 51.4957 2870.28 51.3603 2869.89 51.2354 2869.49 51.0532 2869.18 50.819 2868.94 50.491 2868.61 50.0486 2868.36 49.4916 2868.17 48.9347 2868 48.258 2867.9 47.4668 2867.9 46.3736 2867.9 45.5304 2868.08 44.937 2868.44 44.3488 2868.8 43.9532 2869.24 43.7502 2869.75 43.6096 2870.13 43.542 2870.73 43.5368 2871.55L43.5368 2873.75Z"/><path d="M48.9919 2865.2C47.5865 2865.2 46.5454 2864.81 45.8635 2864.03 45.3065 2863.37 45.0255 2862.58 45.0203 2861.64 45.0255 2860.6 45.3638 2859.74 46.0457 2859.08 46.7328 2858.41 47.6802 2858.08 48.8826 2858.08 49.8664 2858.08 50.6368 2858.23 51.1938 2858.52 51.7559 2858.81 52.1932 2859.25 52.5003 2859.8 52.8126 2860.37 52.9636 2860.98 52.9636 2861.64 52.9636 2862.7 52.6252 2863.56 51.9433 2864.21 51.2614 2864.87 50.2776 2865.2 48.9919 2865.2ZM48.9919 2863.87C49.9653 2863.87 50.694 2863.67 51.1781 2863.24 51.6674 2862.82 51.9121 2862.28 51.9069 2861.64 51.9121 2861 51.6674 2860.47 51.1781 2860.04 50.694 2859.62 49.9497 2859.41 48.9503 2859.4 48.0133 2859.41 47.3054 2859.62 46.8161 2860.04 46.3372 2860.48 46.0926 2861.01 46.0873 2861.64 46.0926 2862.28 46.332 2862.82 46.8109 2863.24 47.2898 2863.67 48.0185 2863.87 48.9919 2863.87Z"/><path d="M52.7918 2855.17 45.192 2857.49 45.192 2856.16 49.5801 2854.95 51.2094 2854.5C51.1313 2854.48 50.6108 2854.35 49.6426 2854.1L45.192 2852.9 45.192 2851.57 49.6009 2850.43 51.0532 2850.05 49.5853 2849.62 45.192 2848.31 45.192 2847.06 52.7918 2849.44 52.7918 2850.78 48.2423 2851.98 46.9462 2852.28 52.7918 2853.82Z"/><path d="M52.7918 2845.98 45.192 2845.98 45.192 2844.82 46.2695 2844.82C45.4419 2844.27 45.0255 2843.46 45.0203 2842.4 45.0255 2841.95 45.1088 2841.53 45.2701 2841.14 45.4367 2840.76 45.6501 2840.47 45.9156 2840.28 46.1863 2840.09 46.5038 2839.96 46.8681 2839.88 47.1076 2839.84 47.524 2839.81 48.1174 2839.81L52.7918 2839.81 52.7918 2841.09 48.1695 2841.09C47.6437 2841.09 47.2533 2841.14 46.9931 2841.24 46.738 2841.35 46.5298 2841.52 46.3684 2841.78 46.2175 2842.03 46.1394 2842.34 46.1342 2842.67 46.1394 2843.23 46.3164 2843.7 46.6599 2844.1 47.0139 2844.5 47.6698 2844.7 48.6379 2844.69L52.7918 2844.69Z"/><path d="M52.7918 2837.86 42.2979 2837.86 42.2979 2836.57 52.7918 2836.57Z"/><path d="M48.9919 2835.05C47.5865 2835.06 46.5454 2834.67 45.8635 2833.88 45.3065 2833.23 45.0255 2832.43 45.0203 2831.49 45.0255 2830.45 45.3638 2829.59 46.0457 2828.93 46.7328 2828.27 47.6802 2827.93 48.8826 2827.93 49.8664 2827.93 50.6368 2828.08 51.1938 2828.37 51.7559 2828.67 52.1932 2829.1 52.5003 2829.66 52.8126 2830.22 52.9636 2830.83 52.9636 2831.49 52.9636 2832.56 52.6252 2833.42 51.9433 2834.07 51.2614 2834.73 50.2776 2835.06 48.9919 2835.05ZM48.9919 2833.73C49.9653 2833.73 50.694 2833.52 51.1781 2833.09 51.6674 2832.67 51.9121 2832.14 51.9069 2831.49 51.9121 2830.85 51.6674 2830.32 51.1781 2829.9 50.694 2829.48 49.9497 2829.26 48.9503 2829.26 48.0133 2829.26 47.3054 2829.48 46.8161 2829.9 46.3372 2830.33 46.0926 2830.86 46.0873 2831.49 46.0926 2832.14 46.332 2832.67 46.8109 2833.09 47.2898 2833.52 48.0185 2833.73 48.9919 2833.73Z"/><path d="M51.8548 2821.46C52.2608 2821.94 52.5471 2822.4 52.7137 2822.84 52.8803 2823.28 52.9636 2823.75 52.9636 2824.26 52.9636 2825.1 52.7606 2825.74 52.3545 2826.18 51.9485 2826.63 51.428 2826.86 50.7877 2826.86 50.4182 2826.86 50.0798 2826.77 49.7675 2826.61 49.4656 2826.44 49.2157 2826.22 49.0283 2825.94 48.841 2825.67 48.7004 2825.36 48.6067 2825.01 48.539 2824.76 48.4766 2824.38 48.4089 2823.87 48.2944 2822.83 48.1434 2822.07 47.9665 2821.57 47.7895 2821.57 47.6802 2821.56 47.6333 2821.56 47.1076 2821.56 46.738 2821.69 46.5246 2821.93 46.2383 2822.26 46.0926 2822.75 46.0873 2823.39 46.0926 2824 46.1967 2824.45 46.4049 2824.74 46.6183 2825.03 46.9931 2825.24 47.5292 2825.38L47.3574 2826.64C46.8213 2826.52 46.3893 2826.34 46.0561 2826.07 45.7282 2825.81 45.4731 2825.43 45.2909 2824.93 45.114 2824.44 45.0255 2823.86 45.0203 2823.21 45.0255 2822.56 45.0983 2822.03 45.2493 2821.62 45.4055 2821.22 45.598 2820.92 45.8271 2820.73 46.0561 2820.54 46.3476 2820.41 46.7016 2820.33 46.9202 2820.29 47.3158 2820.27 47.8884 2820.27L49.6061 2820.27C50.8034 2820.27 51.5633 2820.24 51.8809 2820.18 52.1984 2820.13 52.5003 2820.02 52.7918 2819.86L52.7918 2821.2C52.5263 2821.34 52.214 2821.43 51.8548 2821.46ZM48.9763 2821.57C49.1689 2822.04 49.3302 2822.74 49.4656 2823.67 49.5437 2824.2 49.6322 2824.58 49.7259 2824.79 49.8248 2825.01 49.9653 2825.19 50.1423 2825.3 50.3297 2825.42 50.5327 2825.48 50.7513 2825.48 51.1001 2825.48 51.3863 2825.35 51.6102 2825.09 51.8444 2824.83 51.9589 2824.45 51.9537 2823.95 51.9589 2823.46 51.8496 2823.02 51.631 2822.63 51.4176 2822.24 51.1209 2821.96 50.7357 2821.78 50.4546 2821.64 50.0226 2821.57 49.45 2821.57Z"/><path d="M52.7918 2813.34 51.834 2813.34C52.5888 2813.83 52.9636 2814.53 52.9636 2815.46 52.9636 2816.08 52.797 2816.63 52.4638 2817.14 52.1307 2817.65 51.6674 2818.04 51.0636 2818.32 50.4702 2818.6 49.7779 2818.74 48.9971 2818.74 48.2423 2818.74 47.5552 2818.61 46.9358 2818.36 46.3164 2818.11 45.8427 2817.73 45.5148 2817.22 45.1868 2816.71 45.0255 2816.14 45.0203 2815.52 45.0255 2815.06 45.1192 2814.65 45.3118 2814.29 45.5044 2813.94 45.7594 2813.65 46.0665 2813.43L42.2979 2813.42 42.2979 2812.14 52.7918 2812.14ZM48.9971 2817.41C49.9757 2817.41 50.7044 2817.2 51.1833 2816.79 51.6674 2816.39 51.9121 2815.9 51.9069 2815.34 51.9121 2814.78 51.6778 2814.31 51.2146 2813.91 50.7565 2813.51 50.0538 2813.32 49.1064 2813.32 48.0654 2813.32 47.3054 2813.52 46.8161 2813.92 46.3372 2814.32 46.0926 2814.82 46.0873 2815.4 46.0926 2815.98 46.3268 2816.46 46.7901 2816.84 47.2585 2817.22 47.9925 2817.41 48.9971 2817.41Z"/><path d="M49.4187 2806.35 49.3042 2805.04C49.8352 2804.98 50.2672 2804.84 50.6003 2804.61 50.9387 2804.39 51.2094 2804.03 51.4176 2803.55 51.6258 2803.08 51.7299 2802.54 51.7247 2801.94 51.7299 2801.42 51.6518 2800.95 51.4905 2800.54 51.3343 2800.14 51.1157 2799.84 50.8398 2799.63 50.5691 2799.44 50.2724 2799.34 49.9445 2799.34 49.6166 2799.34 49.3302 2799.44 49.0804 2799.62 48.841 2799.82 48.6327 2800.13 48.461 2800.57 48.3569 2800.86 48.1851 2801.48 47.9509 2802.44 47.7218 2803.41 47.5032 2804.08 47.295 2804.46 47.0347 2804.96 46.712 2805.34 46.3164 2805.58 45.9312 2805.83 45.4939 2805.95 45.0099 2805.95 44.4841 2805.95 43.9896 2805.8 43.5263 2805.5 43.0683 2805.2 42.7195 2804.76 42.4801 2804.18 42.2458 2803.61 42.1261 2802.97 42.1209 2802.26 42.1261 2801.48 42.251 2800.79 42.4957 2800.2 42.7507 2799.61 43.1203 2799.15 43.6044 2798.83 44.0937 2798.51 44.6455 2798.34 45.2545 2798.31L45.3534 2799.64C44.6923 2799.72 44.1926 2799.96 43.8543 2800.37 43.5159 2800.79 43.3442 2801.4 43.3442 2802.2 43.3442 2803.04 43.5003 2803.66 43.8074 2804.04 44.1145 2804.42 44.4841 2804.62 44.9214 2804.61 45.2961 2804.62 45.6085 2804.48 45.8479 2804.2 46.0978 2803.94 46.3476 2803.25 46.5975 2802.11 46.8577 2800.99 47.0764 2800.21 47.2637 2799.79 47.55 2799.18 47.9092 2798.73 48.3413 2798.44 48.7733 2798.15 49.273 2798 49.83 2798 50.3921 2798 50.9179 2798.16 51.4072 2798.48 51.9069 2798.8 52.2869 2799.26 52.5575 2799.86 52.8282 2800.46 52.9636 2801.13 52.9688 2801.88 52.9636 2802.84 52.8282 2803.63 52.5575 2804.27 52.2817 2804.91 51.8652 2805.41 51.3083 2805.78 50.7513 2806.14 50.1215 2806.33 49.4187 2806.35Z"/><path d="M55.7068 2796.26 45.192 2796.26 45.192 2795.09 46.181 2795.09C45.7959 2794.82 45.5044 2794.51 45.3118 2794.16 45.1192 2793.81 45.0255 2793.39 45.0203 2792.89 45.0255 2792.24 45.192 2791.67 45.52 2791.17 45.8583 2790.67 46.3268 2790.3 46.9358 2790.05 47.5448 2789.8 48.2111 2789.68 48.9347 2789.67 49.7155 2789.68 50.4182 2789.82 51.0376 2790.09 51.6622 2790.37 52.1411 2790.78 52.4691 2791.3 52.8022 2791.84 52.9636 2792.4 52.9636 2792.98 52.9636 2793.41 52.8751 2793.8 52.6929 2794.14 52.5159 2794.48 52.2869 2794.77 52.0058 2794.98L55.7068 2794.98ZM49.0336 2795.1C50.0174 2795.1 50.7409 2794.91 51.2042 2794.51 51.6778 2794.12 51.9121 2793.64 51.9069 2793.07 51.9121 2792.5 51.6674 2792.01 51.1781 2791.6 50.694 2791.2 49.9445 2790.99 48.9294 2790.99 47.9613 2790.99 47.2377 2791.19 46.7536 2791.59 46.2747 2791.99 46.0301 2792.46 46.0301 2793.01 46.0301 2793.56 46.2904 2794.05 46.8005 2794.47 47.3158 2794.89 48.0602 2795.1 49.0336 2795.1Z"/><path d="M50.3453 2782.91 50.5067 2781.58C51.2927 2781.79 51.8965 2782.18 52.3233 2782.75 52.7501 2783.32 52.9636 2784.04 52.9636 2784.92 52.9636 2786.04 52.6252 2786.93 51.9381 2787.57 51.2562 2788.23 50.2932 2788.55 49.0544 2788.55 47.7791 2788.55 46.7901 2788.22 46.0821 2787.56 45.3794 2786.9 45.0255 2786.05 45.0203 2785 45.0255 2783.99 45.369 2783.15 46.0613 2782.51 46.7536 2781.86 47.727 2781.54 48.9763 2781.54 49.0544 2781.54 49.1689 2781.54 49.3198 2781.54L49.3198 2787.21C50.1579 2787.17 50.7982 2786.93 51.2406 2786.5 51.6883 2786.08 51.9121 2785.56 51.9069 2784.92 51.9121 2784.45 51.7872 2784.04 51.5373 2783.71 51.2927 2783.38 50.897 2783.11 50.3453 2782.91ZM48.2632 2787.14 48.2632 2782.9C47.6229 2782.95 47.144 2783.12 46.8213 2783.39 46.3268 2783.8 46.0769 2784.33 46.0769 2784.98 46.0769 2785.58 46.2747 2786.07 46.6703 2786.47 47.0659 2786.88 47.5969 2787.1 48.2632 2787.14Z"/><path d="M50.3453 2774.76 50.5067 2773.43C51.2927 2773.64 51.8965 2774.03 52.3233 2774.6 52.7501 2775.17 52.9636 2775.89 52.9636 2776.77 52.9636 2777.89 52.6252 2778.77 51.9381 2779.42 51.2562 2780.08 50.2932 2780.4 49.0544 2780.39 47.7791 2780.4 46.7901 2780.07 46.0821 2779.4 45.3794 2778.75 45.0255 2777.89 45.0203 2776.84 45.0255 2775.83 45.369 2775 46.0613 2774.35 46.7536 2773.71 47.727 2773.39 48.9763 2773.39 49.0544 2773.39 49.1689 2773.39 49.3198 2773.39L49.3198 2779.06C50.1579 2779.02 50.7982 2778.78 51.2406 2778.35 51.6883 2777.93 51.9121 2777.41 51.9069 2776.76 51.9121 2776.3 51.7872 2775.89 51.5373 2775.56 51.2927 2775.22 50.897 2774.96 50.3453 2774.76ZM48.2632 2778.99 48.2632 2774.75C47.6229 2774.8 47.144 2774.97 46.8213 2775.23 46.3268 2775.65 46.0769 2776.18 46.0769 2776.83 46.0769 2777.43 46.2747 2777.92 46.6703 2778.32 47.0659 2778.73 47.5969 2778.95 48.2632 2778.99Z"/><path d="M52.7918 2766.88 51.834 2766.88C52.5888 2767.37 52.9636 2768.08 52.9636 2769 52.9636 2769.62 52.797 2770.17 52.4638 2770.68 52.1307 2771.19 51.6674 2771.58 51.0636 2771.86 50.4702 2772.14 49.7779 2772.28 48.9971 2772.28 48.2423 2772.28 47.5552 2772.15 46.9358 2771.9 46.3164 2771.65 45.8427 2771.27 45.5148 2770.76 45.1868 2770.25 45.0255 2769.68 45.0203 2769.06 45.0255 2768.6 45.1192 2768.2 45.3118 2767.84 45.5044 2767.48 45.7594 2767.19 46.0665 2766.97L42.2979 2766.96 42.2979 2765.68 52.7918 2765.68ZM48.9971 2770.95C49.9757 2770.95 50.7044 2770.75 51.1833 2770.34 51.6674 2769.93 51.9121 2769.45 51.9069 2768.88 51.9121 2768.33 51.6778 2767.85 51.2146 2767.45 50.7565 2767.06 50.0538 2766.86 49.1064 2766.86 48.0654 2766.86 47.3054 2767.06 46.8161 2767.46 46.3372 2767.86 46.0926 2768.36 46.0873 2768.94 46.0926 2769.52 46.3268 2770 46.7901 2770.38 47.2585 2770.76 47.9925 2770.95 48.9971 2770.95Z"/><path d="M112.497 2789.17 226.056 2789.17 226.056 2698.19 112.497 2698.19Z" fill="#FFFFFF"/><path d="M120.742 2734.87 141.88 2734.87 141.88 2713.74 120.742 2713.74Z" fill="#436EEE"/><path d="M120.742 2757.9 141.88 2757.9 141.88 2736.76 120.742 2736.76Z" fill="#7EC0EE"/><path d="M120.742 2780.93 141.88 2780.93 141.88 2759.79 120.742 2759.79Z" fill="#00688B"/><path d="M156.539 2720.1 157.647 2720.1 157.647 2724.95C157.642 2725.8 157.548 2726.47 157.361 2726.96 157.168 2727.46 156.825 2727.87 156.325 2728.17 155.825 2728.49 155.17 2728.64 154.368 2728.64 153.577 2728.64 152.937 2728.51 152.437 2728.24 151.937 2727.97 151.578 2727.57 151.365 2727.06 151.151 2726.55 151.047 2725.84 151.047 2724.95L151.047 2720.1 152.161 2720.1 152.161 2724.95C152.156 2725.68 152.223 2726.22 152.364 2726.56 152.494 2726.9 152.728 2727.17 153.061 2727.36 153.389 2727.54 153.79 2727.64 154.269 2727.64 155.086 2727.64 155.669 2727.46 156.018 2727.09 156.362 2726.72 156.533 2726 156.539 2724.95Z"/><path d="M159.365 2728.5 159.365 2722.42 160.296 2722.42 160.296 2723.28C160.739 2722.62 161.379 2722.28 162.228 2722.28 162.592 2722.28 162.93 2722.35 163.237 2722.47 163.544 2722.61 163.774 2722.78 163.93 2723 164.075 2723.21 164.185 2723.46 164.252 2723.76 164.289 2723.95 164.31 2724.29 164.31 2724.76L164.31 2728.5 163.279 2728.5 163.279 2724.8C163.279 2724.38 163.237 2724.07 163.159 2723.85 163.076 2723.65 162.935 2723.48 162.732 2723.36 162.524 2723.23 162.285 2723.17 162.014 2723.17 161.572 2723.17 161.192 2723.31 160.874 2723.59 160.551 2723.88 160.39 2724.41 160.395 2725.18L160.395 2728.5Z"/><path d="M169.832 2728.5 169.832 2727.73C169.447 2728.33 168.879 2728.63 168.135 2728.63 167.646 2728.63 167.198 2728.5 166.797 2728.23 166.386 2727.97 166.074 2727.6 165.85 2727.11 165.626 2726.64 165.512 2726.09 165.517 2725.46 165.512 2724.86 165.616 2724.31 165.819 2723.81 166.022 2723.32 166.324 2722.94 166.73 2722.67 167.13 2722.41 167.583 2722.28 168.088 2722.28 168.447 2722.28 168.775 2722.36 169.067 2722.51 169.353 2722.67 169.582 2722.87 169.764 2723.11L169.764 2720.1 170.79 2720.1 170.79 2728.5ZM166.573 2725.46C166.568 2726.24 166.735 2726.83 167.068 2727.21 167.396 2727.6 167.781 2727.79 168.229 2727.79 168.676 2727.79 169.062 2727.61 169.379 2727.24 169.691 2726.87 169.848 2726.31 169.853 2725.55 169.848 2724.72 169.686 2724.11 169.369 2723.72 169.046 2723.33 168.65 2723.14 168.187 2723.13 167.724 2723.14 167.344 2723.32 167.037 2723.69 166.724 2724.07 166.568 2724.66 166.573 2725.46Z"/><path d="M176.572 2726.54 177.64 2726.67C177.468 2727.29 177.155 2727.78 176.703 2728.12 176.25 2728.46 175.672 2728.63 174.964 2728.63 174.074 2728.63 173.366 2728.36 172.845 2727.82 172.32 2727.27 172.059 2726.5 172.065 2725.51 172.059 2724.49 172.325 2723.69 172.856 2723.13 173.382 2722.56 174.064 2722.28 174.907 2722.28 175.714 2722.28 176.375 2722.56 176.895 2723.11 177.405 2723.66 177.666 2724.44 177.671 2725.45 177.666 2725.51 177.666 2725.6 177.666 2725.72L173.132 2725.72C173.163 2726.39 173.356 2726.9 173.699 2727.26 174.037 2727.62 174.459 2727.79 174.969 2727.79 175.344 2727.79 175.667 2727.7 175.937 2727.49 176.203 2727.29 176.416 2726.98 176.572 2726.54ZM173.189 2724.87 176.583 2724.87C176.531 2724.36 176.406 2723.98 176.198 2723.72 175.865 2723.33 175.438 2723.13 174.917 2723.13 174.444 2723.13 174.043 2723.29 173.725 2723.6 173.397 2723.92 173.22 2724.34 173.189 2724.87Z"/><path d="M178.919 2728.5 178.919 2722.42 179.846 2722.42 179.846 2723.34C180.085 2722.91 180.304 2722.63 180.502 2722.49 180.7 2722.35 180.918 2722.28 181.168 2722.28 181.512 2722.28 181.866 2722.39 182.225 2722.61L181.871 2723.57C181.611 2723.42 181.361 2723.34 181.116 2723.34 180.887 2723.34 180.684 2723.41 180.507 2723.55 180.325 2723.68 180.195 2723.87 180.122 2724.11 180.002 2724.48 179.945 2724.88 179.95 2725.31L179.95 2728.5Z"/><path d="M182.423 2726.68 183.443 2726.52C183.5 2726.94 183.662 2727.25 183.922 2727.46 184.182 2727.69 184.547 2727.79 185.02 2727.79 185.489 2727.79 185.838 2727.7 186.072 2727.5 186.296 2727.31 186.41 2727.08 186.415 2726.82 186.41 2726.59 186.311 2726.41 186.114 2726.27 185.968 2726.19 185.614 2726.07 185.057 2725.92 184.297 2725.73 183.776 2725.57 183.485 2725.43 183.193 2725.29 182.97 2725.1 182.819 2724.85 182.668 2724.61 182.595 2724.33 182.595 2724.03 182.595 2723.76 182.657 2723.51 182.782 2723.28 182.907 2723.05 183.074 2722.86 183.287 2722.7 183.448 2722.59 183.667 2722.49 183.943 2722.4 184.219 2722.32 184.515 2722.28 184.833 2722.28 185.307 2722.28 185.728 2722.35 186.093 2722.49 186.452 2722.63 186.717 2722.81 186.889 2723.05 187.061 2723.28 187.181 2723.59 187.248 2723.98L186.238 2724.12C186.192 2723.81 186.056 2723.57 185.838 2723.39 185.614 2723.21 185.307 2723.13 184.911 2723.13 184.432 2723.13 184.094 2723.2 183.896 2723.36 183.693 2723.52 183.594 2723.7 183.594 2723.91 183.594 2724.05 183.636 2724.17 183.719 2724.27 183.802 2724.39 183.932 2724.47 184.115 2724.55 184.214 2724.59 184.515 2724.68 185.026 2724.81 185.749 2725.01 186.259 2725.17 186.551 2725.29 186.837 2725.42 187.061 2725.6 187.227 2725.83 187.389 2726.07 187.472 2726.36 187.477 2726.71 187.472 2727.06 187.373 2727.38 187.175 2727.69 186.972 2727.99 186.681 2728.22 186.306 2728.39 185.921 2728.55 185.494 2728.63 185.026 2728.63 184.229 2728.63 183.625 2728.47 183.214 2728.14 182.798 2727.82 182.537 2727.33 182.423 2726.68Z"/><path d="M192.863 2726.54 193.93 2726.67C193.758 2727.29 193.446 2727.78 192.993 2728.12 192.54 2728.46 191.962 2728.63 191.255 2728.63 190.364 2728.63 189.657 2728.36 189.136 2727.82 188.61 2727.27 188.35 2726.5 188.355 2725.51 188.35 2724.49 188.615 2723.69 189.146 2723.13 189.672 2722.56 190.354 2722.28 191.197 2722.28 192.004 2722.28 192.665 2722.56 193.186 2723.11 193.696 2723.66 193.956 2724.44 193.961 2725.45 193.956 2725.51 193.956 2725.6 193.956 2725.72L189.422 2725.72C189.454 2726.39 189.646 2726.9 189.99 2727.26 190.328 2727.62 190.75 2727.79 191.26 2727.79 191.635 2727.79 191.957 2727.7 192.228 2727.49 192.493 2727.29 192.707 2726.98 192.863 2726.54ZM189.48 2724.87 192.873 2724.87C192.821 2724.36 192.696 2723.98 192.488 2723.72 192.155 2723.33 191.728 2723.13 191.208 2723.13 190.734 2723.13 190.333 2723.29 190.016 2723.6 189.688 2723.92 189.511 2724.34 189.48 2724.87Z"/><path d="M195.21 2728.5 195.21 2722.42 196.136 2722.42 196.136 2723.34C196.376 2722.91 196.594 2722.63 196.792 2722.49 196.99 2722.35 197.209 2722.28 197.459 2722.28 197.802 2722.28 198.156 2722.39 198.515 2722.61L198.161 2723.57C197.901 2723.42 197.651 2723.34 197.407 2723.34 197.177 2723.34 196.974 2723.41 196.798 2723.55 196.615 2723.68 196.485 2723.87 196.412 2724.11 196.293 2724.48 196.235 2724.88 196.241 2725.31L196.241 2728.5Z"/><path d="M200.816 2728.5 198.505 2722.42 199.593 2722.42 200.895 2726.06C201.03 2726.46 201.16 2726.87 201.285 2727.28 201.373 2726.97 201.504 2726.58 201.67 2726.13L203.023 2722.42 204.08 2722.42 201.779 2728.5Z"/><path d="M209.152 2726.54 210.219 2726.67C210.048 2727.29 209.735 2727.78 209.282 2728.12 208.829 2728.46 208.252 2728.63 207.544 2728.63 206.654 2728.63 205.946 2728.36 205.425 2727.82 204.899 2727.27 204.639 2726.5 204.644 2725.51 204.639 2724.49 204.905 2723.69 205.436 2723.13 205.961 2722.56 206.643 2722.28 207.486 2722.28 208.293 2722.28 208.954 2722.56 209.475 2723.11 209.985 2723.66 210.245 2724.44 210.251 2725.45 210.245 2725.51 210.245 2725.6 210.245 2725.72L205.711 2725.72C205.743 2726.39 205.935 2726.9 206.279 2727.26 206.617 2727.62 207.039 2727.79 207.549 2727.79 207.924 2727.79 208.246 2727.7 208.517 2727.49 208.783 2727.29 208.996 2726.98 209.152 2726.54ZM205.769 2724.87 209.163 2724.87C209.111 2724.36 208.986 2723.98 208.777 2723.72 208.444 2723.33 208.017 2723.13 207.497 2723.13 207.023 2723.13 206.622 2723.29 206.305 2723.6 205.977 2723.92 205.8 2724.34 205.769 2724.87Z"/><path d="M215.455 2728.5 215.455 2727.73C215.07 2728.33 214.503 2728.63 213.758 2728.63 213.269 2728.63 212.821 2728.5 212.42 2728.23 212.009 2727.97 211.697 2727.6 211.473 2727.11 211.249 2726.64 211.135 2726.09 211.14 2725.46 211.135 2724.86 211.239 2724.31 211.442 2723.81 211.645 2723.32 211.947 2722.94 212.353 2722.67 212.754 2722.41 213.206 2722.28 213.711 2722.28 214.07 2722.28 214.398 2722.36 214.69 2722.51 214.976 2722.67 215.205 2722.87 215.387 2723.11L215.387 2720.1 216.413 2720.1 216.413 2728.5ZM212.197 2725.46C212.191 2726.24 212.358 2726.83 212.691 2727.21 213.019 2727.6 213.404 2727.79 213.852 2727.79 214.3 2727.79 214.685 2727.61 215.002 2727.24 215.315 2726.87 215.471 2726.31 215.476 2725.55 215.471 2724.72 215.309 2724.11 214.992 2723.72 214.669 2723.33 214.273 2723.14 213.81 2723.13 213.347 2723.14 212.967 2723.32 212.66 2723.69 212.348 2724.07 212.191 2724.66 212.197 2725.46Z"/><path d="M151.047 2751.53 151.047 2743.13 154.769 2743.13C155.513 2743.13 156.081 2743.21 156.476 2743.36 156.861 2743.51 157.174 2743.77 157.408 2744.16 157.637 2744.54 157.751 2744.96 157.757 2745.42 157.751 2746.02 157.559 2746.52 157.179 2746.93 156.788 2747.34 156.195 2747.6 155.393 2747.7 155.685 2747.85 155.909 2747.99 156.065 2748.13 156.382 2748.43 156.69 2748.8 156.986 2749.24L158.444 2751.53 157.049 2751.53 155.935 2749.78C155.612 2749.28 155.341 2748.89 155.133 2748.62 154.92 2748.36 154.732 2748.17 154.571 2748.06 154.399 2747.96 154.233 2747.88 154.066 2747.84 153.936 2747.81 153.728 2747.8 153.447 2747.8L152.161 2747.8 152.161 2751.53ZM152.161 2746.84 154.545 2746.84C155.055 2746.84 155.451 2746.79 155.737 2746.68 156.018 2746.58 156.237 2746.41 156.388 2746.18 156.533 2745.95 156.606 2745.7 156.611 2745.42 156.606 2745.02 156.461 2744.7 156.179 2744.45 155.888 2744.19 155.435 2744.06 154.816 2744.06L152.161 2744.06Z"/><path d="M163.352 2751.53 163.352 2750.63C162.873 2751.32 162.233 2751.66 161.421 2751.66 161.062 2751.66 160.723 2751.59 160.416 2751.46 160.104 2751.32 159.875 2751.15 159.724 2750.94 159.573 2750.73 159.469 2750.48 159.406 2750.17 159.365 2749.97 159.344 2749.65 159.344 2749.21L159.344 2745.45 160.374 2745.45 160.374 2748.82C160.374 2749.36 160.395 2749.72 160.437 2749.91 160.499 2750.18 160.635 2750.4 160.848 2750.55 161.056 2750.7 161.317 2750.78 161.629 2750.78 161.936 2750.78 162.228 2750.7 162.498 2750.54 162.769 2750.39 162.956 2750.17 163.071 2749.89 163.18 2749.62 163.237 2749.22 163.243 2748.7L163.243 2745.45 164.273 2745.45 164.273 2751.53Z"/><path d="M165.876 2751.53 165.876 2745.45 166.802 2745.45 166.802 2746.37C167.042 2745.94 167.26 2745.65 167.458 2745.51 167.656 2745.38 167.875 2745.31 168.125 2745.31 168.468 2745.31 168.822 2745.42 169.181 2745.64L168.827 2746.6C168.567 2746.45 168.317 2746.37 168.073 2746.37 167.843 2746.37 167.64 2746.44 167.464 2746.58 167.281 2746.71 167.151 2746.9 167.078 2747.14 166.959 2747.51 166.901 2747.91 166.907 2748.34L166.907 2751.53Z"/><path d="M173.763 2750.78C173.378 2751.1 173.013 2751.33 172.659 2751.46 172.305 2751.59 171.925 2751.66 171.524 2751.66 170.853 2751.66 170.338 2751.5 169.978 2751.17 169.619 2750.85 169.442 2750.43 169.442 2749.92 169.442 2749.63 169.51 2749.35 169.645 2749.11 169.781 2748.86 169.958 2748.66 170.181 2748.51 170.395 2748.37 170.64 2748.26 170.921 2748.17 171.118 2748.13 171.426 2748.07 171.837 2748.02 172.664 2747.92 173.279 2747.8 173.674 2747.67 173.674 2747.53 173.674 2747.44 173.679 2747.4 173.674 2746.98 173.575 2746.68 173.388 2746.51 173.117 2746.28 172.727 2746.16 172.217 2746.16 171.727 2746.16 171.368 2746.25 171.139 2746.41 170.905 2746.59 170.738 2746.89 170.629 2747.31L169.625 2747.18C169.708 2746.75 169.859 2746.4 170.072 2746.14 170.28 2745.87 170.582 2745.67 170.983 2745.52 171.379 2745.38 171.842 2745.31 172.363 2745.31 172.883 2745.31 173.305 2745.37 173.627 2745.49 173.95 2745.62 174.19 2745.77 174.346 2745.95 174.497 2746.14 174.601 2746.37 174.668 2746.65 174.694 2746.83 174.71 2747.15 174.715 2747.6L174.715 2748.98C174.71 2749.94 174.736 2750.55 174.783 2750.8 174.825 2751.06 174.908 2751.3 175.043 2751.53L173.966 2751.53C173.856 2751.31 173.789 2751.06 173.763 2750.78ZM173.674 2748.48C173.299 2748.63 172.737 2748.76 171.993 2748.86 171.566 2748.93 171.264 2749 171.092 2749.07 170.915 2749.15 170.78 2749.26 170.686 2749.41 170.587 2749.56 170.541 2749.72 170.546 2749.89 170.541 2750.17 170.645 2750.4 170.858 2750.58 171.061 2750.77 171.368 2750.85 171.769 2750.85 172.165 2750.85 172.513 2750.77 172.826 2750.59 173.133 2750.43 173.362 2750.19 173.508 2749.88 173.617 2749.65 173.674 2749.31 173.674 2748.85Z"/><path d="M176.292 2751.53 176.292 2743.13 177.322 2743.13 177.322 2751.53Z"/><path d="M156.539 2766.16 157.647 2766.16 157.647 2771.01C157.642 2771.85 157.548 2772.52 157.361 2773.02 157.168 2773.52 156.825 2773.92 156.325 2774.23 155.825 2774.54 155.17 2774.69 154.368 2774.7 153.577 2774.69 152.937 2774.56 152.437 2774.29 151.937 2774.02 151.578 2773.63 151.365 2773.11 151.151 2772.6 151.047 2771.9 151.047 2771.01L151.047 2766.16 152.161 2766.16 152.161 2771C152.156 2771.74 152.223 2772.27 152.364 2772.62 152.494 2772.96 152.728 2773.23 153.061 2773.41 153.389 2773.6 153.79 2773.69 154.269 2773.69 155.086 2773.69 155.669 2773.51 156.018 2773.14 156.362 2772.77 156.533 2772.06 156.539 2771Z"/><path d="M159.354 2774.55 159.354 2768.47 160.281 2768.47 160.281 2769.4C160.52 2768.97 160.739 2768.68 160.937 2768.54 161.134 2768.41 161.353 2768.34 161.603 2768.33 161.946 2768.34 162.3 2768.45 162.66 2768.67L162.306 2769.62C162.045 2769.48 161.796 2769.4 161.551 2769.4 161.322 2769.4 161.119 2769.47 160.942 2769.6 160.76 2769.74 160.63 2769.93 160.557 2770.17 160.437 2770.54 160.38 2770.94 160.385 2771.37L160.385 2774.55Z"/><path d="M164.222 2774.55 163.264 2774.55 163.264 2766.16 164.295 2766.16 164.295 2769.16C164.732 2768.61 165.289 2768.34 165.966 2768.33 166.336 2768.34 166.684 2768.42 167.023 2768.56 167.356 2768.72 167.632 2768.93 167.85 2769.2 168.059 2769.47 168.23 2769.81 168.355 2770.19 168.475 2770.58 168.532 2770.99 168.537 2771.42 168.532 2772.47 168.277 2773.28 167.767 2773.84 167.252 2774.41 166.632 2774.68 165.914 2774.69 165.19 2774.68 164.628 2774.39 164.222 2773.79ZM164.212 2771.47C164.207 2772.2 164.306 2772.73 164.509 2773.05 164.831 2773.59 165.274 2773.85 165.825 2773.85 166.273 2773.85 166.658 2773.65 166.991 2773.26 167.314 2772.87 167.481 2772.28 167.486 2771.51 167.481 2770.72 167.325 2770.13 167.012 2769.75 166.7 2769.37 166.32 2769.18 165.872 2769.18 165.419 2769.18 165.029 2769.38 164.701 2769.77 164.373 2770.17 164.207 2770.73 164.212 2771.47Z"/><path d="M173.763 2773.8C173.378 2774.13 173.013 2774.36 172.659 2774.49 172.305 2774.62 171.925 2774.68 171.524 2774.69 170.853 2774.68 170.338 2774.53 169.978 2774.2 169.619 2773.88 169.442 2773.46 169.442 2772.95 169.442 2772.66 169.51 2772.38 169.645 2772.13 169.781 2771.89 169.958 2771.69 170.181 2771.54 170.395 2771.39 170.64 2771.28 170.921 2771.2 171.118 2771.15 171.426 2771.1 171.837 2771.05 172.664 2770.95 173.279 2770.83 173.674 2770.7 173.674 2770.56 173.674 2770.47 173.679 2770.43 173.674 2770.01 173.575 2769.71 173.388 2769.54 173.117 2769.31 172.727 2769.19 172.217 2769.19 171.727 2769.19 171.368 2769.28 171.139 2769.44 170.905 2769.61 170.738 2769.92 170.629 2770.34L169.625 2770.21C169.708 2769.78 169.859 2769.43 170.072 2769.17 170.28 2768.9 170.582 2768.7 170.983 2768.55 171.379 2768.41 171.842 2768.34 172.363 2768.33 172.883 2768.34 173.305 2768.4 173.627 2768.52 173.95 2768.65 174.19 2768.8 174.346 2768.98 174.497 2769.17 174.601 2769.4 174.668 2769.68 174.694 2769.86 174.71 2770.18 174.715 2770.63L174.715 2772C174.71 2772.97 174.736 2773.58 174.783 2773.82 174.825 2774.09 174.908 2774.32 175.043 2774.55L173.966 2774.55C173.856 2774.34 173.789 2774.09 173.763 2773.8ZM173.674 2771.5C173.299 2771.66 172.737 2771.79 171.993 2771.89 171.566 2771.96 171.264 2772.02 171.092 2772.1 170.915 2772.17 170.78 2772.29 170.686 2772.44 170.587 2772.59 170.541 2772.75 170.546 2772.92 170.541 2773.2 170.645 2773.43 170.858 2773.61 171.061 2773.79 171.368 2773.88 171.769 2773.88 172.165 2773.88 172.513 2773.8 172.826 2773.62 173.133 2773.46 173.362 2773.22 173.508 2772.91 173.617 2772.68 173.674 2772.34 173.674 2771.88Z"/><path d="M176.313 2774.55 176.313 2768.47 177.244 2768.47 177.244 2769.34C177.687 2768.67 178.327 2768.34 179.176 2768.33 179.54 2768.34 179.878 2768.41 180.185 2768.53 180.492 2768.67 180.722 2768.84 180.878 2769.05 181.023 2769.27 181.133 2769.52 181.2 2769.81 181.237 2770.01 181.258 2770.34 181.258 2770.82L181.258 2774.55 180.227 2774.55 180.227 2770.85C180.227 2770.44 180.185 2770.12 180.107 2769.91 180.024 2769.71 179.883 2769.54 179.68 2769.42 179.472 2769.29 179.233 2769.23 178.962 2769.23 178.52 2769.23 178.14 2769.37 177.822 2769.65 177.499 2769.93 177.338 2770.46 177.343 2771.23L177.343 2774.55Z"/></g></svg>