<svg xmlns="http://www.w3.org/2000/svg" viewBox="0 0 80 49" role="img" aria-labelledby="bbaLogoTitle">
	<title id="bbaLogoTitle">BBA</title>
	<path fill="#001B36" d="M79.999 48.574h-22.21V26.536H80v22.038zm0-26.536h-22.21V11.02C57.79 4.947 62.662 0 68.895 0 75.013 0 80 4.947 80 11.02v11.018h-.001zM40 48.574H28.895V26.536H40c6.119 0 11.105 4.947 11.105 11.02 0 6.072-4.986 11.018-11.105 11.018zm0-26.536H28.895V0H40c6.119 0 11.105 4.947 11.105 11.02 0 6.073-4.986 11.018-11.105 11.018zM11.105 48.574H0V26.536h11.105c6.119 0 11.105 4.947 11.105 11.02 0 6.072-4.986 11.018-11.105 11.018zm0-26.536H0V0h11.105C17.224 0 22.21 4.947 22.21 11.02c0 6.073-4.986 11.018-11.105 11.018z"/>
</svg>
